<svg xmlns="http://www.w3.org/2000/svg" viewBox="0 0 750 500"><g id="freepik--background-complete--inject-68"><circle cx="375" cy="94.53" r="31.77" transform="translate(219.9 448.8) rotate(-80.5)" style="fill:#ebebeb"></circle><circle cx="376.46" cy="95.24" r="30.32" style="fill:#dbdbdb"></circle><circle cx="376.45" cy="95.24" r="28.4" style="fill:#fff"></circle><path d="M404.21,89.21C391.28,97.05,370,109.9,358.14,117a28.5,28.5,0,0,1-7.76-10.44l39.3-36.41A28.43,28.43,0,0,1,404.21,89.21Z" style="fill:#ebebeb;opacity:0.5"></path><path d="M404.84,96.23a28.31,28.31,0,0,1-1.88,9.23l-35.42,16.75a28.23,28.23,0,0,1-4.48-1.92C373.76,114.11,393.32,102.86,404.84,96.23Z" style="fill:#ebebeb;opacity:0.5"></path><rect x="376.18" y="68.9" width="0.55" height="4.3" style="fill:#c7c7c7"></rect><rect x="364.09" y="72.14" width="0.55" height="4.31" transform="translate(11.66 192.12) rotate(-30)" style="fill:#c7c7c7"></rect><rect x="355.23" y="80.99" width="0.55" height="4.31" transform="translate(105.73 349.43) rotate(-60)" style="fill:#c7c7c7"></rect><rect x="350.12" y="94.96" width="4.3" height="0.55" style="fill:#c7c7c7"></rect><rect x="353.36" y="107.06" width="4.31" height="0.55" transform="matrix(0.87, -0.5, 0.5, 0.87, -6.03, 192.16)" style="fill:#c7c7c7"></rect><rect x="362.21" y="115.91" width="4.3" height="0.55" transform="translate(81.71 373.8) rotate(-60.03)" style="fill:#c7c7c7"></rect><rect x="376.18" y="117.27" width="0.55" height="4.31" style="fill:#c7c7c7"></rect><rect x="388.27" y="114.03" width="0.55" height="4.3" transform="translate(-6.04 209.84) rotate(-30)" style="fill:#c7c7c7"></rect><rect x="397.13" y="105.18" width="0.55" height="4.31" transform="translate(105.73 397.81) rotate(-60)" style="fill:#c7c7c7"></rect><rect x="398.49" y="94.96" width="4.3" height="0.55" style="fill:#c7c7c7"></rect><rect x="395.25" y="82.87" width="4.31" height="0.55" transform="matrix(0.87, -0.5, 0.5, 0.87, 11.68, 209.87)" style="fill:#c7c7c7"></rect><rect x="386.4" y="74.02" width="4.31" height="0.55" transform="translate(130.09 373.77) rotate(-60.03)" style="fill:#c7c7c7"></rect><polygon points="376.87 70.85 377.8 97.16 375.11 97.12 376.14 70.84 376.87 70.85" style="fill:#c7c7c7"></polygon><polygon points="393.25 86.06 375.56 97.36 374.27 94.99 392.9 85.42 393.25 86.06" style="fill:#a6a6a6"></polygon><path d="M377.37,95.24a.92.92,0,1,1-.92-.92A.92.92,0,0,1,377.37,95.24Z" style="fill:#c7c7c7"></path><path d="M664.69,241.73H489.88V53.47H664.69Zm-170.81-4H660.69V57.47H493.88Z" style="fill:#ebebeb"></path><rect x="575.29" y="58.51" width="4" height="181.21" style="fill:#ebebeb"></rect><rect x="486.25" y="61.56" width="182.06" height="5.57" style="fill:#ebebeb"></rect><rect x="486.25" y="67.82" width="182.06" height="5.57" style="fill:#ebebeb"></rect><rect x="486.25" y="74.09" width="182.06" height="5.57" style="fill:#ebebeb"></rect><rect x="486.25" y="80.35" width="182.06" height="5.57" style="fill:#ebebeb"></rect><rect x="486.25" y="86.62" width="182.06" height="5.57" style="fill:#ebebeb"></rect><rect x="486.25" y="92.89" width="182.06" height="5.57" style="fill:#ebebeb"></rect><rect x="486.25" y="99.15" width="182.06" height="5.57" style="fill:#ebebeb"></rect><rect x="486.25" y="105.42" width="182.06" height="5.57" style="fill:#ebebeb"></rect><rect x="486.25" y="111.69" width="182.06" height="5.57" style="fill:#ebebeb"></rect><rect x="655.44" y="60.43" width="1" height="108.39" style="fill:#263238"></rect><polygon points="657.71 173.47 654.16 173.47 655.05 168.37 656.82 168.37 657.71 173.47" style="fill:#263238"></polygon><rect x="659.04" y="60.43" width="1" height="135.73" style="fill:#263238"></rect><polygon points="661.32 199.91 657.77 199.91 658.66 194.81 660.43 194.81 661.32 199.91" style="fill:#263238"></polygon><rect x="480.05" y="52.69" width="194.48" height="11.65" style="fill:#dbdbdb"></rect><rect x="90.94" y="121.17" width="166.63" height="7.31" transform="translate(348.52 249.64) rotate(180)" style="fill:#ebebeb"></rect><rect x="240.93" y="128.48" width="7.31" height="24.17" style="fill:#ebebeb"></rect><rect x="240.93" y="128.48" width="7.31" height="7.47" style="fill:#dbdbdb"></rect><rect x="100.28" y="128.48" width="7.31" height="24.17" style="fill:#ebebeb"></rect><rect x="100.28" y="128.48" width="7.31" height="7.47" style="fill:#dbdbdb"></rect><rect x="197.32" y="92.02" width="46.57" height="11.73" transform="translate(318.49 -122.73) rotate(90)" style="fill:#c7c7c7"></rect><rect x="218.05" y="68.8" width="5.12" height="11.73" transform="translate(295.28 -145.94) rotate(90)" style="fill:#dbdbdb"></rect><rect x="219.66" y="78.87" width="1.9" height="11.73" transform="translate(305.34 -135.88) rotate(90)" style="fill:#dbdbdb"></rect><rect x="217.32" y="105.91" width="5.12" height="13.19" transform="translate(332.38 -107.38) rotate(90)" style="fill:#dbdbdb"></rect><rect x="183.48" y="89.91" width="54.33" height="8.2" transform="translate(304.65 -116.64) rotate(90)" style="fill:#dbdbdb"></rect><rect x="200.24" y="79.94" width="20.89" height="4.92" transform="translate(293.08 -128.29) rotate(90)" style="fill:#ebebeb"></rect><rect x="143.27" y="95.07" width="54.33" height="8.2" transform="translate(361.37 49.89) rotate(135.33)" style="fill:#c7c7c7"></rect><rect x="157.15" y="99.48" width="20.89" height="4.92" transform="translate(358.45 56.62) rotate(135.33)" style="fill:#dbdbdb"></rect><rect x="178.96" y="93.59" width="41.26" height="13.92" transform="translate(300.14 -99.05) rotate(90)" style="fill:#a6a6a6"></rect><rect x="197.67" y="107.92" width="3.85" height="13.92" transform="translate(314.48 -84.71) rotate(90)" style="fill:#c7c7c7"></rect><rect x="198.85" y="102.73" width="1.49" height="13.92" transform="translate(309.28 -89.91) rotate(90)" style="fill:#c7c7c7"></rect><rect x="211.89" y="96.98" width="38.78" height="9.61" transform="translate(333.07 -129.49) rotate(90)" style="fill:#a6a6a6"></rect><rect x="229.47" y="110.45" width="3.61" height="9.61" transform="translate(346.54 -116.02) rotate(90)" style="fill:#c7c7c7"></rect><rect x="229.47" y="87.39" width="3.61" height="9.61" transform="translate(323.48 -139.08) rotate(90)" style="fill:#c7c7c7"></rect><rect x="230.58" y="92.38" width="1.4" height="9.61" transform="translate(328.46 -134.1) rotate(90)" style="fill:#c7c7c7"></rect><path d="M124.64,71.49c8.2,8,9.58,20.46,7.85,31.34-.05.24-.43.18-.43-.06,0-2.47.08-4.93.07-7.37a3.24,3.24,0,0,0-.13-.33,16.53,16.53,0,0,1-5.33-5.73c-1.37-2.69-1.9-5.73-3-8.55-.1-.27.19-.19.38-.05,5,3.68,6.58,7.64,8,12.93a44.44,44.44,0,0,0-.87-8.24,28.09,28.09,0,0,0-6.82-13.72C124.29,71.57,124.5,71.35,124.64,71.49Z" style="fill:#a6a6a6"></path><path d="M123.1,72.43c-1.41,0-2.3,2.3-3.4,3a1.06,1.06,0,0,1-1.56-.25c-1.09-1.52.41-3.39,1.82-4.44A15.47,15.47,0,0,1,117,72a1,1,0,0,1-1.32-.79c-.48-2.07,2.13-3,3.91-3-.87-.6-3.34-2.23-2-3s4.25,1.53,5.2,2.3c1.39,1.13,3,2.83,3.12,4.6C126,74.13,124.18,72.86,123.1,72.43Z" style="fill:#dbdbdb"></path><path d="M123.51,72.78c-1.81-.83-5.27.36-5.57-.33-.6-1.39,2.17-2.34,3.67-2.53-1.38-.37-4-1-3.94-2.29.1-1.62,4-.23,6,1.3,2.52,1.93,2.5,3.8,2.08,4.17S123.8,72.91,123.51,72.78Z" style="fill:#ebebeb"></path><path d="M143.32,70.7c-8.5,7.71-10.35,20.07-9,31,0,.25.42.2.43,0,.1-2.47.11-4.93.21-7.37l.14-.33a16.43,16.43,0,0,0,5.55-5.51c1.47-2.64,2.12-5.66,3.28-8.43.1-.27-.19-.2-.38-.07-5.13,3.49-6.87,7.39-8.5,12.62a44.3,44.3,0,0,1,1.18-8.2,28.09,28.09,0,0,1,7.34-13.46A.15.15,0,0,0,143.32,70.7Z" style="fill:#a6a6a6"></path><path d="M144.82,71.69c1.41.1,2.21,2.39,3.28,3.09a1.06,1.06,0,0,0,1.57-.19c1.15-1.48-.28-3.41-1.64-4.51a15.82,15.82,0,0,0,2.87,1.46,1,1,0,0,0,1.35-.74c.56-2.06-2-3.08-3.79-3.19.89-.57,3.43-2.11,2.14-3s-4.3,1.37-5.28,2.1c-1.43,1.08-3.16,2.71-3.29,4.47C141.87,73.28,143.72,72.08,144.82,71.69Z" style="fill:#dbdbdb"></path><path d="M144.4,72c1.84-.75,5.26.56,5.58-.11.65-1.36-2.09-2.42-3.57-2.66,1.39-.32,4.05-.82,4-2.15,0-1.62-4-.38-6.09,1.08-2.59,1.83-2.65,3.69-2.24,4.08S144.1,72.15,144.4,72Z" style="fill:#ebebeb"></path><path d="M134.63,91.07A84.58,84.58,0,0,1,132,103.26a.31.31,0,0,1-.6-.12c.56-3.76,1.58-7.45,2.14-11.2a56.87,56.87,0,0,0,.65-11.51c-.36-6.33-2.08-13.07-6.21-18-.09-.12.1-.28.19-.18,8.28,9.65,7,21.48,7,22.54,1.18-4,2.38-8.57,6.81-12.64.19-.18.34-.09.31.21-.79,7.4-2.85,11.27-7.14,15.23C135,88.74,134.81,89.91,134.63,91.07Z" style="fill:#a6a6a6"></path><path d="M127.89,63.52c-1.48-.66-3.54,1.23-5,1.36a1.22,1.22,0,0,1-1.49-1c-.37-2.12,2.13-3.32,4.12-3.7-1.26-.08-2.49.26-3.71-.07a1.19,1.19,0,0,1-1-1.49c.55-2.39,3.71-2,5.59-1.19-.6-1-2.35-4-.57-4.17s3.63,3.72,4.23,5c.87,1.88,1.75,4.47.92,6.34C130,66.74,128.8,64.51,127.89,63.52Z" style="fill:#dbdbdb"></path><path d="M128.14,64.08c-1.46-1.75-5.65-2.27-5.61-3.13.08-1.74,3.43-1.34,5.08-.78-1.24-1.08-3.68-3-2.93-4.36.92-1.63,4.32,1.8,5.62,4.4,1.64,3.27.68,5.19.06,5.37C129.51,65.82,128.38,64.38,128.14,64.08Z" style="fill:#ebebeb"></path><path d="M140.07,93.29l3.65,27.88H121.51c.46-2.47,4.59-27.91,4.59-27.91Z" style="fill:#dbdbdb"></path><rect x="417.82" y="393.6" width="51.08" height="5.81" style="fill:#dbdbdb"></rect><rect x="440.33" y="159.87" width="6.05" height="233.72" style="fill:#dbdbdb"></rect><rect x="440.33" y="159.87" width="6.05" height="30.66" style="fill:#a6a6a6"></rect><polygon points="475.39 177.63 411.32 177.63 415.97 162.33 416.14 161.78 429.69 117.26 457.02 117.26 470.58 161.79 470.58 161.8 470.73 162.31 475.39 177.63" style="fill:#ebebeb"></polygon><path d="M432,127.55a.44.44,0,0,1-.43.43.44.44,0,0,1,0-.87A.44.44,0,0,1,432,127.55Zm7.46-.44a.44.44,0,0,0,0,.87.44.44,0,0,0,0-.87Zm7.89,0a.44.44,0,1,0,.43.44A.44.44,0,0,0,447.31,127.11Zm7.89,0a.44.44,0,1,0,.43.44A.44.44,0,0,0,455.2,127.11Zm-19.73-5.52a.43.43,0,1,0,.43.43A.43.43,0,0,0,435.47,121.59Zm7.89,0a.43.43,0,1,0,.43.43A.43.43,0,0,0,443.36,121.59Zm7.89,0a.43.43,0,1,0,.43.43A.43.43,0,0,0,451.25,121.59Zm-27.61,17a.43.43,0,1,0,0,.86.43.43,0,1,0,0-.86Zm7.89,0a.43.43,0,0,0,0,.86.43.43,0,1,0,0-.86Zm7.89,0a.43.43,0,1,0,0,.86.43.43,0,1,0,0-.86Zm7.89,0a.43.43,0,1,0,.43.43A.43.43,0,0,0,447.31,138.59Zm7.89,0a.43.43,0,1,0,.43.43A.43.43,0,0,0,455.2,138.59Zm7.89,0a.43.43,0,1,0,.43.43A.43.43,0,0,0,463.09,138.59Zm-35.51-5.53a.43.43,0,0,0-.43.43.43.43,0,0,0,.86,0A.43.43,0,0,0,427.58,133.06Zm7.89,0a.43.43,0,0,0-.43.43.43.43,0,0,0,.86,0A.43.43,0,0,0,435.47,133.06Zm7.89,0a.43.43,0,0,0-.43.43.43.43,0,0,0,.86,0A.43.43,0,0,0,443.36,133.06Zm7.89,0a.43.43,0,0,0-.43.43.43.43,0,0,0,.86,0A.43.43,0,0,0,451.25,133.06Zm7.89,0a.44.44,0,0,0-.43.43.43.43,0,0,0,.43.43.43.43,0,0,0,.43-.43A.43.43,0,0,0,459.14,133.06Zm-35.5,17a.43.43,0,1,0,0,.86.43.43,0,1,0,0-.86Zm7.89,0a.43.43,0,0,0,0,.86.43.43,0,1,0,0-.86Zm7.89,0a.43.43,0,1,0,0,.86.43.43,0,1,0,0-.86Zm7.89,0a.43.43,0,1,0,.43.43A.43.43,0,0,0,447.31,150.06Zm7.89,0a.43.43,0,1,0,.43.43A.43.43,0,0,0,455.2,150.06Zm7.89,0a.43.43,0,1,0,.43.43A.43.43,0,0,0,463.09,150.06Zm-35.51-5.52a.43.43,0,0,0-.43.43.43.43,0,0,0,.86,0A.43.43,0,0,0,427.58,144.54Zm7.89,0a.43.43,0,0,0-.43.43.43.43,0,1,0,.86,0A.43.43,0,0,0,435.47,144.54Zm7.89,0a.43.43,0,0,0-.43.43.43.43,0,0,0,.86,0A.43.43,0,0,0,443.36,144.54Zm7.89,0a.43.43,0,0,0-.43.43.43.43,0,0,0,.86,0A.43.43,0,0,0,451.25,144.54Zm7.89,0a.43.43,0,0,0-.43.43.44.44,0,0,0,.43.43.43.43,0,0,0,.43-.43A.43.43,0,0,0,459.14,144.54Zm-43,17.24-.17.55a.41.41,0,0,0,.21-.37A.39.39,0,0,0,416.14,161.78Zm7.5-.24a.43.43,0,0,0-.43.43.43.43,0,0,0,.43.43.44.44,0,0,0,.43-.43A.43.43,0,0,0,423.64,161.54Zm7.89,0a.43.43,0,0,0-.43.43.43.43,0,0,0,.43.43A.44.44,0,0,0,432,162,.43.43,0,0,0,431.53,161.54Zm7.89,0a.43.43,0,0,0-.43.43.43.43,0,0,0,.43.43.44.44,0,0,0,.43-.43A.43.43,0,0,0,439.42,161.54Zm7.89,0a.43.43,0,0,0-.43.43.43.43,0,0,0,.86,0A.43.43,0,0,0,447.31,161.54Zm7.89,0a.43.43,0,0,0-.43.43.43.43,0,1,0,.86,0A.43.43,0,0,0,455.2,161.54Zm7.89,0a.43.43,0,0,0-.43.43.43.43,0,0,0,.86,0A.43.43,0,0,0,463.09,161.54Zm7.49.26a.41.41,0,0,0,0,.16.41.41,0,0,0,.18.35ZM419.69,156a.43.43,0,1,0,.43.43A.43.43,0,0,0,419.69,156Zm7.89,0a.43.43,0,1,0,.43.43A.43.43,0,0,0,427.58,156Zm7.89,0a.43.43,0,1,0,.43.43A.43.43,0,0,0,435.47,156Zm7.89,0a.43.43,0,1,0,.43.43A.43.43,0,0,0,443.36,156Zm7.89,0a.43.43,0,1,0,.43.43A.43.43,0,0,0,451.25,156Zm7.89,0a.43.43,0,1,0,0,.86.43.43,0,1,0,0-.86Zm7.89,0a.43.43,0,1,0,0,.86.43.43,0,1,0,0-.86Zm-51.28,17a.43.43,0,1,0,0,.86.43.43,0,1,0,0-.86Zm7.89,0a.43.43,0,1,0,0,.86.43.43,0,1,0,0-.86Zm7.89,0a.43.43,0,1,0,0,.86.43.43,0,1,0,0-.86Zm7.89,0a.43.43,0,0,0,0,.86.43.43,0,0,0,0-.86Zm7.89,0a.43.43,0,1,0,.43.43A.43.43,0,0,0,447.31,173Zm7.89,0a.43.43,0,1,0,.43.43A.43.43,0,0,0,455.2,173Zm7.89,0a.43.43,0,1,0,.43.43A.43.43,0,0,0,463.09,173Zm7.89,0a.43.43,0,1,0,.43.43A.43.43,0,0,0,471,173Zm-51.29-5.53a.43.43,0,0,0-.43.43.43.43,0,1,0,.86,0A.43.43,0,0,0,419.69,167.48Zm7.89,0a.43.43,0,0,0-.43.43.43.43,0,1,0,.86,0A.43.43,0,0,0,427.58,167.48Zm7.89,0a.43.43,0,0,0-.43.43.43.43,0,1,0,.86,0A.43.43,0,0,0,435.47,167.48Zm7.89,0a.43.43,0,0,0-.43.43.43.43,0,0,0,.86,0A.43.43,0,0,0,443.36,167.48Zm7.89,0a.43.43,0,0,0-.43.43.43.43,0,0,0,.86,0A.43.43,0,0,0,451.25,167.48Zm7.89,0a.44.44,0,0,0-.43.43.43.43,0,0,0,.43.43.43.43,0,0,0,.43-.43A.43.43,0,0,0,459.14,167.48Zm7.89,0a.44.44,0,0,0-.43.43.43.43,0,0,0,.43.43.43.43,0,0,0,.43-.43A.43.43,0,0,0,467,167.48Z" style="fill:#fff"></path></g><g id="freepik--Shadow--inject-68"><ellipse cx="375" cy="424.22" rx="306.75" ry="23.84" style="fill:#ebebeb"></ellipse></g><g id="freepik--Sofas--inject-68"><polygon points="620.57 320.6 652.65 320.6 671.01 229.08 641.64 215.58 620.57 320.6" style="fill:#dbdbdb"></polygon><polygon points="528.77 320.6 620.57 320.6 641.64 215.58 549.83 215.58 528.77 320.6" style="fill:#ebebeb"></polygon><rect x="637.04" y="271.49" width="49.16" height="100.86" transform="translate(1323.24 643.85) rotate(180)" style="fill:#dbdbdb"></rect><polygon points="505.18 372.36 518.61 372.36 538.62 271.49 505.18 271.49 505.18 372.36" style="fill:#dbdbdb"></polygon><rect x="610.03" y="271.49" width="27.01" height="100.86" transform="translate(1247.07 643.85) rotate(180)" style="fill:#ebebeb"></rect><rect x="478.17" y="271.49" width="27.01" height="100.86" transform="translate(983.34 643.85) rotate(180)" style="fill:#ebebeb"></rect><rect x="505.18" y="320.6" width="104.85" height="51.76" transform="translate(1115.21 692.95) rotate(180)" style="fill:#ebebeb"></rect><rect x="505.18" y="298.22" width="104.85" height="22.59" transform="translate(1115.21 619.03) rotate(180)" style="fill:#ebebeb"></rect><path d="M630.42,271.49l-10.19-.18-10.2-.13h-.31v.31l-.11,11.81,0,11.8c0,7.87-.06,15.74,0,23.61s0,15.74.14,23.6.17,15.74.34,23.61q.26-11.81.34-23.61c.1-7.86.11-15.73.14-23.6s0-15.74,0-23.61l0-11.8-.11-11.81-.31.31,10.2-.12Z" style="fill:#dbdbdb"></path><path d="M505.18,271.49c-.21,7.9-.31,15.8-.39,23.7l-.12,23.69.11,23.7.15,11.84.25,11.85.25-11.85.14-11.84.12-23.7-.12-23.69C505.49,287.29,505.39,279.39,505.18,271.49Z" style="fill:#dbdbdb"></path><path d="M505.18,320.6c8.73.21,17.47.3,26.21.39l26.21.11,26.22-.11,13.1-.14L610,320.6l-13.11-.25-13.1-.15-26.22-.11-26.21.12C522.65,320.29,513.91,320.39,505.18,320.6Z" style="fill:#dbdbdb"></path><path d="M505.18,298.22c8.73.21,17.47.31,26.21.39l26.21.12,26.22-.12,13.1-.14,13.11-.25L596.92,298l-13.1-.14-26.22-.12-26.21.12C522.65,297.91,513.91,298,505.18,298.22Z" style="fill:#dbdbdb"></path><polygon points="667.52 372.35 668.18 380.52 669.73 399.41 676.85 399.41 678.4 380.52 679.07 372.35 667.52 372.35" style="fill:#c7c7c7"></polygon><polygon points="679.07 372.35 667.52 372.35 668.18 380.52 678.4 380.52 679.07 372.35" style="fill:#a6a6a6"></polygon><polygon points="617.76 372.35 618.42 380.52 619.98 399.41 627.09 399.41 628.65 380.52 629.31 372.35 617.76 372.35" style="fill:#c7c7c7"></polygon><polygon points="629.31 372.35 617.76 372.35 618.42 380.52 628.65 380.52 629.31 372.35" style="fill:#a6a6a6"></polygon><polygon points="535.23 372.35 535.89 380.52 537.45 399.41 544.57 399.41 546.12 380.52 546.78 372.35 535.23 372.35" style="fill:#c7c7c7"></polygon><polygon points="546.78 372.35 535.23 372.35 535.89 380.52 546.12 380.52 546.78 372.35" style="fill:#a6a6a6"></polygon><polygon points="485.46 372.35 486.13 380.52 487.68 399.41 494.8 399.41 496.35 380.52 497.01 372.35 485.46 372.35" style="fill:#c7c7c7"></polygon><polygon points="485.46 372.35 486.13 380.52 496.35 380.52 497.01 372.35 485.46 372.35" style="fill:#a6a6a6"></polygon><polygon points="252.75 320.6 220.67 320.6 202.31 229.08 231.68 215.58 252.75 320.6" style="fill:#dbdbdb"></polygon><polygon points="373.55 320.6 252.75 320.6 231.68 215.58 352.48 215.58 373.55 320.6" style="fill:#ebebeb"></polygon><polygon points="129.43 320.6 97.35 320.6 78.99 229.08 108.36 215.58 129.43 320.6" style="fill:#dbdbdb"></polygon><polygon points="250.23 320.6 129.43 320.6 108.36 215.58 229.16 215.58 250.23 320.6" style="fill:#ebebeb"></polygon><rect x="63.8" y="271.49" width="49.16" height="100.86" style="fill:#dbdbdb"></rect><polygon points="397.1 372.36 383.67 372.36 363.66 271.49 397.1 271.49 397.1 372.36" style="fill:#dbdbdb"></polygon><rect x="112.96" y="271.49" width="27.01" height="100.86" style="fill:#ebebeb"></rect><rect x="397.1" y="271.49" width="27.01" height="100.86" style="fill:#ebebeb"></rect><rect x="139.97" y="320.6" width="257.13" height="51.76" style="fill:#ebebeb"></rect><rect x="139.97" y="298.22" width="257.13" height="22.59" style="fill:#ebebeb"></rect><path d="M119.58,271.49l10.19-.18,10.2-.13h.31v.31l.11,11.81,0,11.8c0,7.87.06,15.74,0,23.61s0,15.74-.14,23.6-.17,15.74-.34,23.61q-.25-11.81-.34-23.61c-.1-7.86-.11-15.73-.14-23.6s0-15.74,0-23.61l.05-11.8.11-11.81.31.31-10.2-.12Z" style="fill:#dbdbdb"></path><path d="M397.1,271.49c.21,7.9.31,15.8.39,23.7l.12,23.69-.12,23.7-.14,11.84-.25,11.85-.25-11.85-.14-11.84-.12-23.7.12-23.69C396.79,287.29,396.89,279.39,397.1,271.49Z" style="fill:#dbdbdb"></path><path d="M397.1,320.6c-8.74.21-17.47.3-26.21.39l-26.22.11L166.18,321l-13.1-.14L140,320.6l13.11-.25,13.1-.15,178.49-.11,26.22.12C379.63,320.29,388.36,320.39,397.1,320.6Z" style="fill:#dbdbdb"></path><path d="M397.1,298.22c-8.74.21-17.47.31-26.21.39l-26.22.12-178.49-.12-13.1-.14L140,298.22l13.11-.25,13.1-.14,178.49-.12,26.22.12C379.63,297.91,388.36,298,397.1,298.22Z" style="fill:#dbdbdb"></path><polygon points="82.48 372.35 81.82 380.52 80.27 399.41 73.15 399.41 71.6 380.52 70.93 372.35 82.48 372.35" style="fill:#c7c7c7"></polygon><polygon points="70.93 372.35 82.48 372.35 81.82 380.52 71.6 380.52 70.93 372.35" style="fill:#a6a6a6"></polygon><polygon points="132.24 372.35 131.57 380.52 130.02 399.41 122.91 399.41 121.35 380.52 120.69 372.35 132.24 372.35" style="fill:#c7c7c7"></polygon><polygon points="120.69 372.35 132.24 372.35 131.57 380.52 121.35 380.52 120.69 372.35" style="fill:#a6a6a6"></polygon><polygon points="367.05 372.35 366.38 380.52 364.83 399.41 357.71 399.41 356.16 380.52 355.5 372.35 367.05 372.35" style="fill:#c7c7c7"></polygon><polygon points="355.5 372.35 367.05 372.35 366.38 380.52 356.16 380.52 355.5 372.35" style="fill:#a6a6a6"></polygon><polygon points="416.82 372.35 416.15 380.52 414.6 399.41 407.48 399.41 405.93 380.52 405.26 372.35 416.82 372.35" style="fill:#c7c7c7"></polygon><polygon points="416.82 372.35 416.15 380.52 405.93 380.52 405.26 372.35 416.82 372.35" style="fill:#a6a6a6"></polygon></g><g id="freepik--Floor--inject-68"><polygon points="63.8 399.43 141.6 399.19 219.4 399.1 375 398.93 530.6 399.1 608.4 399.18 686.2 399.43 608.4 399.67 530.6 399.76 375 399.93 219.4 399.76 141.6 399.67 63.8 399.43" style="fill:#263238"></polygon></g><g id="freepik--character-3--inject-68"><path d="M521.45,417.87c2.2-.3,57.66-28,59.06-30.29.17-.27-2.21-5.34-5.61-12.23-7.67-15.59-23-42-23-42l-33.39,18.76L536.89,387s-6.17,7.47-11.17,13.81v0a88.39,88.39,0,0,0-6.22,8.41C518.23,411.92,519.25,418.18,521.45,417.87Z" style="fill:#f7a9a0"></path><path d="M580.51,387.57c-1.41,2.33-56.86,30-59.06,30.3s-3.22-5.95-2-8.67a87.43,87.43,0,0,1,6.21-8.4v0c2.65-3.35,5.62-7,7.82-9.73-1.62,2.43-4.31,6.86-2.74,7.72,2.9,1.58,27.76-11.32,44.11-23.4C578.3,382.24,580.69,387.3,580.51,387.57Z" style="fill:#263238"></path><path d="M530.3,383.88,569,363.47s-29.5-57.82-28.73-58.83c2.71-3.49,35.38-1.9,49.49-15.93,14.95-14.85,3.23-38,3.23-38h-39s.66,12.6-1,14c-1.11.92-58.51,6.46-60.75,21.6C488.26,312.52,530.3,383.88,530.3,383.88Z" style="fill:#37474f"></path><path d="M527.89,376.68c4.65-2.82,9.41-5.4,14.2-8s9.59-5.09,14.46-7.5c2.74-1.36,5.55-2.59,8.29-3.94a.08.08,0,0,1,.08.13c-2.41,1.29-4.75,2.71-7.15,4s-4.74,2.56-7.12,3.82c-4.8,2.55-9.63,5-14.44,7.55-2.72,1.42-5.46,2.76-8.23,4.08A.1.1,0,0,1,527.89,376.68Z" style="fill:#263238"></path><path d="M524.87,298.22c1-2,3.5-2.28,5.4-2.75l15.57-3.88c9.2-2.28,18.68-4.43,26.92-9.3,3.94-2.33,7.76-5.27,9.73-9.52s2-8.77,2-13.26c0-1.11-.06-2.21-.13-3.32,0-.1.15-.09.15,0,.29,4.42.74,8.84-.25,13.21a17.85,17.85,0,0,1-2.47,6,20.74,20.74,0,0,1-4.49,4.72c-7.29,5.71-16.43,8.45-25.27,10.71-5,1.28-10,2.49-15,3.71l-7.73,1.9a7.19,7.19,0,0,0-3.18,1.25,3.37,3.37,0,0,0-1,2.81,10.83,10.83,0,0,0,.78,3.07c.47,1.22,1,2.42,1.44,3.62q1.44,3.53,2.94,7,3,7,6.3,14c4.34,9.22,9,18.29,13.71,27.31.59,1.12,1.16,2.26,1.74,3.39,0,.06-.07.12-.11.05-5.06-8.91-9.79-18-14.3-27.25s-8.73-18.43-12.35-27.95C524.64,302,524,299.94,524.87,298.22Z" style="fill:#263238"></path><path d="M437.92,419.93c2.11.7,64.08,0,66.36-1.44.27-.17.29-13.45.29-13.45,3.35-17.32,6.82-45.44,6.82-45.44L470,359.54l-4.7,39.34s-8.81,4-16.08,7.54h0a88,88,0,0,0-9.27,4.85C437.62,413.17,435.8,419.24,437.92,419.93Z" style="fill:#f7a9a0"></path><path d="M504.79,404.56c-.07.16-.15.31-.21.48,0,0,0,13.28-.3,13.44C502,420,440,420.63,437.91,419.93s-.29-6.76,2-8.65a89.46,89.46,0,0,1,9.26-4.85h0c2.33-1.13,4.83-2.31,7.14-3.38-2.41,1.57-5.26,3.81-4.36,5C454.07,410.83,484.84,409.2,504.79,404.56Z" style="fill:#263238"></path><path d="M465.45,389.61l46.78-.35s8.39-71.86,12.19-75.93c1.92-2.06,63.65-2.32,78.79-16.75s0-45.87,0-45.87H563.38s-1,12.29,2.06,19.82c0,0-55.7.9-70.89,12.83C474.19,299.37,465.45,389.61,465.45,389.61Z" style="fill:#37474f"></path><path d="M469,382c5.42-.39,10.84-.54,16.28-.67s10.86-.18,16.29-.12c3.06,0,6.12.2,9.18.25a.08.08,0,1,1,0,.15c-2.73.06-5.46.26-8.19.34l-8.08.18c-5.43.09-10.86.11-16.29.18-3.07,0-6.12,0-9.18-.1A.11.11,0,0,1,469,382Z" style="fill:#263238"></path><path d="M582.93,256.52a2.47,2.47,0,0,0,.22.53.07.07,0,0,1,0,.09c.52,1.63.74,3.37,1.24,5a7.85,7.85,0,0,0,3,4.32c3.09,2.15,6.81,3.12,10.4,4a.1.1,0,0,1,0,.2,19.66,19.66,0,0,1-6.13-.94,16,16,0,0,1-5.17-2.48,8.06,8.06,0,0,1-3-4.46,25.56,25.56,0,0,1-.52-2.88,22.27,22.27,0,0,1-.36-3.36A.16.16,0,0,1,582.93,256.52Z" style="fill:#263238"></path><path d="M558.15,267.79a46.44,46.44,0,0,1,7.17,2.74l.11.05a1.67,1.67,0,0,1-.11-.44c0-.17-.05-.34-.08-.51s0-.36-.06-.55l0-.27v0a2.16,2.16,0,0,1-1.54-.79,5.78,5.78,0,0,1-1-2.25c-.27-1-.51-2.05-.74-3.08s-.45-2.29-.64-3.45a22,22,0,0,1-.39-3.43.16.16,0,0,1,.32,0c.27,1.06.39,2.15.59,3.22s.43,2.14.67,3.2.51,2.13.81,3.18.52,2.3,1.61,2.61c2.23.63,1.23-4.39,1.13-5.37-.23-2.27-.37-4.59-.77-6.84,0-.1.13-.14.15,0,.48,2.07,1,4.1,1.41,6.2.18,1,.31,2.07.42,3.1a4.84,4.84,0,0,1-.2,2.67,2,2,0,0,1-1.48,1.09c0,.08.05.16.07.24s.11.33.15.5l.12.51a1.28,1.28,0,0,1,.07.61.26.26,0,0,1-.11.14c.95.41,1.91.83,2.85,1.27a24.78,24.78,0,0,1,3.44,1.66c.13.06,0,.24-.1.22a26.3,26.3,0,0,1-3.6-1.31c-1.19-.45-2.38-.94-3.56-1.43a45.79,45.79,0,0,1-6.81-3.17A.12.12,0,0,1,558.15,267.79Z" style="fill:#263238"></path><path d="M604.06,269.42a60.55,60.55,0,0,0-2.43-11.58c-.31-1-.63-1.94-1-2.9,0-.1-.19-.05-.16,0a62.83,62.83,0,0,1,2.66,11.65,46.3,46.3,0,0,1,.37,11.58,20.62,20.62,0,0,1-3.68,9.78,25.23,25.23,0,0,1-7.13,6.48c-6.45,4-14.11,5.5-21.48,6.93q-12.16,2.37-24.42,4.27c-9.18,1.43-27.2,2.42-28,4-1.53,3.12-4,17.69-5.52,26.61s-2.83,17.8-3.79,26.76c-.55,5.08-1,10.17-1.32,15.28,0,.33.49.31.52,0,.86-9,1.78-18.05,3-27s2.77-17.75,4.55-26.54c1-4.89,2.86-13.54,3.45-14.36.92-1.26,16.36-2.36,24.62-3.64s16.69-2.72,25-4.31c7.59-1.45,15.49-2.75,22.31-6.55,5.89-3.28,10.69-8.44,12.13-15.11A36.26,36.26,0,0,0,604.06,269.42Z" style="fill:#263238"></path><path d="M543,311.2c-1.61-.05-3.27.11-4.88.22s-3.33.26-5,.42c-3.23.32-6.51.66-9.69,1.29-.23,0-5.77,29.27-6.44,35.08-.37,3.23-.71,6.47-.79,9.72a.08.08,0,0,0,.16,0c.53-2.89.9-5.79,1.31-8.69s.87-5.73,1.32-8.59c.9-5.73,5.41-26.71,5.42-26.73,3.19-.37,5.79-.93,9-1.34,1.62-.21,3.24-.4,4.86-.6s3.21-.31,4.78-.58C543.12,311.39,543.08,311.2,543,311.2Z" style="fill:#263238"></path><path d="M563.88,270.45A301.5,301.5,0,0,0,531.14,273c-4.84.62-9.68,1.33-14.48,2.21A76.45,76.45,0,0,0,504,278.52a39.21,39.21,0,0,0-6.46,3,34.29,34.29,0,0,0-5.65,4.4c-.07.06,0,.17.11.1a39.44,39.44,0,0,1,11.26-6.16,74.5,74.5,0,0,1,12.38-3.36c4.7-.89,9.44-1.55,14.17-2.2q7.68-1.05,15.39-1.86c5.8-.6,12.87-1.1,18.67-1.68A.17.17,0,0,0,563.88,270.45Z" style="fill:#263238"></path><path d="M559.27,161.08c2.6-4.36,8.11-6.33,13.85-6.32s12.85,1.43,15.17,10.11c1.9,7,.93,14.46,2.53,22.43s14.8,25.6,1.52,37.94c-11.93,11.09-41,8.49-45.28-8.87-3.39-13.77,11.37-29.88,12.12-35.73S556.42,165.85,559.27,161.08Z" style="fill:#263238"></path><path d="M558.32,169.39a30.27,30.27,0,0,1-.14,12.21,11.5,11.5,0,0,1-1.2,3c-.52.93-1.08,1.82-1.64,2.71-1.14,1.76-2.27,3.5-3.31,5.29a41.39,41.39,0,0,0-4.7,11.25,30.73,30.73,0,0,0-.4,12,26.56,26.56,0,0,1-1-6,28.89,28.89,0,0,1,.47-6.14A36.27,36.27,0,0,1,551,192.05c1.06-1.82,2.22-3.58,3.38-5.32a21,21,0,0,0,2.9-5.34,24.71,24.71,0,0,0,1-5.93A47.27,47.27,0,0,0,558.32,169.39Z" style="fill:#263238"></path><path d="M589.08,171c.68,4.07,1.21,8.17,2.11,12.18a47.79,47.79,0,0,0,1.7,5.89c.69,1.89,1.68,3.73,2.58,5.61s1.75,3.8,2.48,5.76a34.26,34.26,0,0,1,1.61,6.06,21.32,21.32,0,0,1,0,6.28,15.51,15.51,0,0,1-2.55,5.81,15.9,15.9,0,0,0,2-5.87,20.53,20.53,0,0,0-.32-6.06,50.46,50.46,0,0,0-4.28-11.51c-.87-1.88-1.86-3.72-2.56-5.73a39.06,39.06,0,0,1-1.52-6.07A94.89,94.89,0,0,1,589.08,171Z" style="fill:#263238"></path><path d="M571.42,214.73c-4.07,10.1-20.24,42.75-30.86,45.06-7,1.51-35.13-1.22-40-7.88-2.11-2.9,1.46-23.14,5.22-22.34s26.33,3.79,29.1,3,23.55-24.73,31.32-30.67C579.6,191.64,573.61,209.29,571.42,214.73Z" style="fill:#f7a9a0"></path><path d="M514.32,228.11l-.6,30.41s22.32,4.07,31.86.39c11.59-4.48,27.45-41.43,29.58-47.49,3.51-9.94,2.23-15.84-3.19-14.19-2.11.62-4.84,2.4-8.16,5.54s-23.32,24.4-29.67,28.49C530.58,233.55,514.32,228.11,514.32,228.11Z" style="fill:#FF725E"></path><path d="M519.37,257.24c.23-4.49.47-22.91.25-26.89,0-.27-.19-.33-.21,0-1,13.44-.22,22.5-.21,26.91C519.2,257.33,519.37,257.35,519.37,257.24Z" style="fill:#263238"></path><path d="M523.17,259.83c7.26.76,16.94,1.19,22.41-.92,11.59-4.48,27.45-41.43,29.58-47.49,3.51-9.94,2.23-15.84-3.19-14.19l-.51.17Z" style="fill:#263238"></path><path d="M554.32,239.77l-4.48,24.17s48,8.44,60.25,8.05c0,0-7.76-56.74-20.32-71.48-6.28-7.38-14-7.14-19.1-2.36-1.29,1.22-16.87,20.22-18.72,27.64C550.33,232.34,554.32,239.77,554.32,239.77Z" style="fill:#FF725E"></path><path d="M563.63,207a0,0,0,0,0-.07,0c-1.1,1.37-2.13,2.79-3.15,4.22.34-.7.68-1.39,1.05-2.07,0-.09-.08-.17-.13-.08-.58,1-1.18,2.06-1.74,3.12-.09.17-.16.35-.25.53l-.61.86a74.44,74.44,0,0,0-4.35,6.65c-2.94,5.2-3.54,7.74-2.62,12.62a19.94,19.94,0,0,0,2.52,6.95,41.29,41.29,0,0,0-1.13,5.82c0,.07.22,0,.24,0a48.28,48.28,0,0,0,1.34-5.68c0-.08-3.09-8.23-2.41-12.47.71-4.41,3.53-8.29,5.88-12a0,0,0,0,0,.07,0l.33-.62c.09-.14.18-.28.26-.42C560.4,211.86,562.06,209.47,563.63,207Z" style="fill:#263238"></path><path d="M573.3,216.72s4-4.43.74-6.9-6.46,2.55-6.46,2.55Z" style="fill:#455a64"></path><path d="M542.35,245.49h0l-1,5.75-.34,1.89,1.75-.81,5.28-2.47h0l25.36-33.31-5.72-4.35-25.36,33.31Z" style="fill:#455a64"></path><polygon points="541.37 251.24 541.04 253.13 542.79 252.32 541.37 251.24" style="fill:#37474f"></polygon><rect x="566.02" y="214.01" width="8.39" height="1.66" transform="translate(893.69 731.24) rotate(-142.71)" style="fill:#263238"></rect><rect x="564.91" y="215.47" width="8.39" height="1.66" transform="translate(890.78 733.2) rotate(-142.71)" style="fill:#263238"></rect><polygon points="571.93 219.51 569.78 217.87 561.79 230.82 562.62 231.38 571.93 219.51" style="fill:#263238"></polygon><path d="M596.82,208c16,20.05,33.43,53.27,24.71,59.6-8,5.77-35.27-1.88-52.24-9.76-3.23-1.5,12-30,15.28-28a95.62,95.62,0,0,0,10.7,5.64c.94.32-3-11.36-7.95-25.53C581.85,194.18,587.66,196.57,596.82,208Z" style="fill:#f7a9a0"></path><path d="M542.43,225.07c-.23,3.4,8.21,3.25,8.21,3.25a6.31,6.31,0,0,0-2.77,3.27c-.79,2.47,2.74,4.79,2.74,4.79a7.79,7.79,0,0,0-2.37,3.91c-.52,2.44,2.71,5.29,2.71,5.29a6.78,6.78,0,0,0,.08,4.75c1.75,4,8.46,4.49,12.55,5.62a90.12,90.12,0,0,1,13.33,5.17L586.5,231s-17.31-11.78-22.35-11.85C559.9,219.09,542.78,219.87,542.43,225.07Z" style="fill:#f7a9a0"></path><path d="M550.72,228.23c4.52-1,9.29-.95,13.88-.83a.08.08,0,0,1,0,.16c-4.57-.17-9.3.88-13.86.89A.11.11,0,0,1,550.72,228.23Z" style="fill:#263238"></path><path d="M550.75,236a12,12,0,0,1,3.17,0c1.12.09,2.23.19,3.35.31,2.23.24,4.46.54,6.67.89.1,0,.1.17,0,.16-2.23-.23-4.46-.44-6.69-.58-1.12-.07-2.23-.14-3.35-.19a14.53,14.53,0,0,1-3.16-.3A.16.16,0,0,1,550.75,236Z" style="fill:#263238"></path><path d="M551,245.58a8.58,8.58,0,0,1,2.85.17l3,.38c2,.24,4.07.48,6.11.65.1,0,.09.17,0,.16-2.07-.16-4.15-.3-6.22-.48-1-.08-2-.18-3-.28a7.73,7.73,0,0,1-2.74-.5S551,245.59,551,245.58Z" style="fill:#263238"></path><path d="M588.87,199.15c12,8.25,41.5,54.76,35,66.82s-45.66-3.57-45.66-3.57L583.46,229S593.64,235.47,594,235s-5-16.14-7.13-22.49S582.5,194.75,588.87,199.15Z" style="fill:#FF725E"></path><path d="M583.38,260.75c1-4.39,4.24-22.51,4.69-26.47,0-.28-.14-.36-.21-.08-3.2,13.09-3.93,22.15-4.66,26.51A.09.09,0,0,0,583.38,260.75Z" style="fill:#263238"></path><path d="M583.7,229.08A24.51,24.51,0,0,1,587,230.8l2.88,1.65c2.07,1.21,4.11,2.47,6.14,3.74s4,2.57,6,3.9,3.91,2.76,5.91,4.08c.09.07,0,.2-.11.14-2-1.29-4.14-2.45-6.2-3.7L595.6,237c-2-1.22-4.05-2.42-6.06-3.65-1-.59-2-1.2-2.95-1.8a26.9,26.9,0,0,1-3.12-2A.23.23,0,0,1,583.7,229.08Z" style="fill:#263238"></path><path d="M587.71,219.63c.6.85,1.19,1.71,1.75,2.6.1.16.19.33.29.5l-.42-1.35a43.73,43.73,0,0,1-1.42-4.74c0-.07.09-.1.12,0a46.11,46.11,0,0,1,1.86,4.82c.58,1.58,1.17,3.15,1.71,4.74s1.12,3.18,1.64,4.78a34.52,34.52,0,0,1,1.35,4.77c0,.09-.11.12-.15,0a34.24,34.24,0,0,1-1.93-4.79c-.57-1.58-1.09-3.18-1.63-4.78-.23-.66-.44-1.33-.66-2l-.3-.46c-.28-.43-.54-.87-.79-1.31-.52-.91-1-1.83-1.47-2.76C587.64,219.63,587.69,219.6,587.71,219.63Z" style="fill:#263238"></path><path d="M578.19,261.66c0-.23.15-.27.18,0s0,.38,0,.51c1.34.43,6.23,2.2,7.42,2.62,2.51.89,5,1.68,7.6,2.39s5.16,1.33,7.77,1.88,5.22,1.1,7.85,1.41a.08.08,0,1,1,0,.16c-2.69-.27-5.36-.49-8-.93s-5.21-1-7.76-1.68-5.19-1.5-7.73-2.41c-1.27-.46-2.52-.95-3.77-1.47a18.66,18.66,0,0,1-3.51-1.63.25.25,0,0,1-.11-.25C578.13,262,578.16,261.85,578.19,261.66Z" style="fill:#263238"></path><polygon points="520.63 261.63 555.99 262.38 540.45 216.67 505.09 215.91 520.63 261.63" style="fill:#fff"></polygon><polygon points="518.21 261.58 553.57 262.33 538.03 216.62 502.67 215.86 518.21 261.58" style="fill:#263238"></polygon><path d="M534.28,216.54a3.11,3.11,0,0,0,1.47,1.88c.33.19.43-.25.1-.43a2.37,2.37,0,0,1-1-1.18c0-.09-.06-.18-.07-.26a1.59,1.59,0,0,1,0-.86.56.56,0,0,1,.21-.31l0,0,0,0h.07a.55.55,0,0,1,.25,0,1,1,0,0,1,.4.27,4.78,4.78,0,0,1,.49.74l0,.06a.36.36,0,0,1,0,.09s0,0,0,.07h.51a4,4,0,0,0-.46-.89,1.93,1.93,0,0,0-1.34-.89.78.78,0,0,0-.81.71A2.09,2.09,0,0,0,534.28,216.54Z" style="fill:#c7c7c7"></path><path d="M531.51,216.48a3.11,3.11,0,0,0,1.47,1.88c.34.19.44-.25.11-.43a2.32,2.32,0,0,1-1-1.18,2.58,2.58,0,0,1-.08-.26,1.58,1.58,0,0,1,0-.86.54.54,0,0,1,.2-.31l0,0,0,0h.06a.54.54,0,0,1,.25,0,1,1,0,0,1,.4.27,1.92,1.92,0,0,1,.34.48,2.2,2.2,0,0,1,.15.26l0,.06a.42.42,0,0,1,0,.1s0,0,0,.06h.5a4,4,0,0,0-.46-.89,1.91,1.91,0,0,0-1.34-.89.78.78,0,0,0-.81.71A2.09,2.09,0,0,0,531.51,216.48Z" style="fill:#c7c7c7"></path><path d="M528.74,216.42a3.1,3.1,0,0,0,1.48,1.88c.33.19.43-.25.1-.43a2.32,2.32,0,0,1-1-1.18,2,2,0,0,1-.08-.26,1.69,1.69,0,0,1,0-.86.54.54,0,0,1,.2-.31l0,0,0,0h.07a.4.4,0,0,1,.24,0,1,1,0,0,1,.4.27,2.55,2.55,0,0,1,.35.48c.05.08.09.17.15.26l0,.07a.36.36,0,0,1,0,.09s0,0,0,.06h.5a3.6,3.6,0,0,0-.46-.89,2,2,0,0,0-1.34-.89.79.79,0,0,0-.81.71A2.09,2.09,0,0,0,528.74,216.42Z" style="fill:#c7c7c7"></path><path d="M526,216.36a3.14,3.14,0,0,0,1.48,1.88c.33.19.43-.25.1-.43a2.37,2.37,0,0,1-1-1.18,2.41,2.41,0,0,1-.08-.25,1.73,1.73,0,0,1,0-.87.6.6,0,0,1,.2-.31l0,0h.11a.44.44,0,0,1,.25,0,1.23,1.23,0,0,1,.4.27,2.48,2.48,0,0,1,.34.48,1.73,1.73,0,0,1,.15.27l0,.06a.36.36,0,0,1,0,.09.14.14,0,0,1,0,.06h.5a3.54,3.54,0,0,0-.46-.88,1.93,1.93,0,0,0-1.34-.9.77.77,0,0,0-.8.71A2,2,0,0,0,526,216.36Z" style="fill:#c7c7c7"></path><path d="M523.21,216.31a3.14,3.14,0,0,0,1.47,1.88c.33.18.43-.26.1-.43a2.44,2.44,0,0,1-1-1.19,2.33,2.33,0,0,1-.07-.25,1.63,1.63,0,0,1,0-.87.5.5,0,0,1,.21-.3l0,0,0,0H524a.44.44,0,0,1,.25,0,1.13,1.13,0,0,1,.4.27,2.48,2.48,0,0,1,.34.48,1.73,1.73,0,0,1,.15.27l0,.06a.36.36,0,0,1,0,.09s0,0,0,.06h.5a3.54,3.54,0,0,0-.46-.88,1.94,1.94,0,0,0-1.33-.9.78.78,0,0,0-.81.71A1.91,1.91,0,0,0,523.21,216.31Z" style="fill:#c7c7c7"></path><path d="M520.44,216.25a3.14,3.14,0,0,0,1.47,1.88c.34.18.44-.26.11-.43a2.34,2.34,0,0,1-1-1.19,2.41,2.41,0,0,1-.08-.25,1.74,1.74,0,0,1,0-.87.55.55,0,0,1,.21-.3s0,0,0,0l0,0h.06a.43.43,0,0,1,.25,0,1.13,1.13,0,0,1,.4.27,2.11,2.11,0,0,1,.34.48,2.34,2.34,0,0,1,.15.27l0,.06a.36.36,0,0,1,0,.09s0,0,0,.06h.5a3.91,3.91,0,0,0-.46-.88,2,2,0,0,0-1.34-.9.78.78,0,0,0-.81.71A2.13,2.13,0,0,0,520.44,216.25Z" style="fill:#c7c7c7"></path><path d="M517.67,216.19a3.16,3.16,0,0,0,1.48,1.88c.33.18.43-.26.1-.43a2.31,2.31,0,0,1-1-1.19,2.41,2.41,0,0,1-.08-.25,1.73,1.73,0,0,1,0-.87.49.49,0,0,1,.2-.3s0,0,0,0l0,0h.07a.4.4,0,0,1,.24,0,1.05,1.05,0,0,1,.4.27,2.55,2.55,0,0,1,.35.48c0,.09.09.18.15.27l0,.06a.36.36,0,0,1,0,.09s0,0,0,.06h.5a3.54,3.54,0,0,0-.46-.88,1.91,1.91,0,0,0-1.34-.89.78.78,0,0,0-.81.7A2.13,2.13,0,0,0,517.67,216.19Z" style="fill:#c7c7c7"></path><path d="M514.9,216.13a3.16,3.16,0,0,0,1.48,1.88c.33.19.43-.25.1-.43a2.35,2.35,0,0,1-1-1.19,2.41,2.41,0,0,1-.08-.25,1.73,1.73,0,0,1,0-.87.57.57,0,0,1,.2-.3l0,0,0,0h.07a.38.38,0,0,1,.25,0,1,1,0,0,1,.4.27,2.16,2.16,0,0,1,.34.47c.06.09.1.18.15.27l0,.06a.36.36,0,0,1,0,.09.14.14,0,0,1,0,.06h.5a3.54,3.54,0,0,0-.46-.88,1.91,1.91,0,0,0-1.34-.89.77.77,0,0,0-.8.7A2,2,0,0,0,514.9,216.13Z" style="fill:#c7c7c7"></path><path d="M512.13,216.07a3.16,3.16,0,0,0,1.48,1.88c.33.19.43-.25.1-.43a2.17,2.17,0,0,1-1.07-1.44,1.59,1.59,0,0,1,0-.86.56.56,0,0,1,.21-.31l0,0,0,0h.07a.37.37,0,0,1,.25,0,.92.92,0,0,1,.4.27,2,2,0,0,1,.34.48,2.2,2.2,0,0,1,.15.26l0,.06a.36.36,0,0,1,0,.09s0,0,0,.06h.5a3.54,3.54,0,0,0-.46-.88,1.9,1.9,0,0,0-1.34-.89.77.77,0,0,0-.8.7A2,2,0,0,0,512.13,216.07Z" style="fill:#c7c7c7"></path><path d="M509.37,216a3.11,3.11,0,0,0,1.47,1.88c.34.19.44-.25.11-.43a2.37,2.37,0,0,1-1-1.19l-.07-.25a1.69,1.69,0,0,1,0-.86.62.62,0,0,1,.21-.31l0,0,.05,0h.06a.43.43,0,0,1,.25,0,.92.92,0,0,1,.4.27,1.75,1.75,0,0,1,.34.48,2.2,2.2,0,0,1,.15.26l0,.06a.36.36,0,0,1,0,.09s0,0,0,.06h.51a4.13,4.13,0,0,0-.46-.88,1.91,1.91,0,0,0-1.34-.89.78.78,0,0,0-.81.7A2.13,2.13,0,0,0,509.37,216Z" style="fill:#c7c7c7"></path><path d="M506.6,216a3.13,3.13,0,0,0,1.48,1.88c.33.19.43-.25.1-.43a2.31,2.31,0,0,1-1-1.19,2.41,2.41,0,0,1-.08-.25,1.69,1.69,0,0,1,0-.86.54.54,0,0,1,.2-.31l0,0,0,0h.06a.43.43,0,0,1,.25,0,.87.87,0,0,1,.4.27,2,2,0,0,1,.35.48c.05.08.09.17.14.26l0,.06a.36.36,0,0,1,0,.09s0,0,0,.06h.5a3.72,3.72,0,0,0-.46-.88,1.91,1.91,0,0,0-1.34-.89.78.78,0,0,0-.81.7A2.13,2.13,0,0,0,506.6,216Z" style="fill:#c7c7c7"></path><path d="M503.83,215.89a3.16,3.16,0,0,0,1.48,1.88c.33.19.43-.25.1-.43a2.32,2.32,0,0,1-1-1.18c0-.09-.06-.18-.08-.26a1.69,1.69,0,0,1,0-.86.54.54,0,0,1,.2-.31l0,0,0,0h.07a.51.51,0,0,1,.24,0,1,1,0,0,1,.41.27,4.78,4.78,0,0,1,.49.74l0,.06a.36.36,0,0,1,0,.09.14.14,0,0,1,0,.07h.5a3.6,3.6,0,0,0-.46-.89,1.91,1.91,0,0,0-1.34-.89.77.77,0,0,0-.8.71A2,2,0,0,0,503.83,215.89Z" style="fill:#c7c7c7"></path><path d="M504.94,226.2c-1.67,3.91-6.07,8.86-6.32,12a3.63,3.63,0,0,0,2.16,3.75s-3.07,1.68-2.82,4.57c.12,1.49,2.61,2.6,2.61,2.6a4.32,4.32,0,0,0-2,4c.3,2,2.75,2.85,2.75,2.85s-1.65,2.47-.68,4.45c2,4,19.66,3.32,22.13-3.3,1.16-3.09-3.15-2.69-3.15-2.69s6.06-2.08,6-5.73S520,246,520,246s5.86-2.07,5.42-5.85c-.45-3.94-5.87-2.12-5.87-2.12s3.83-2.82,2.83-5.64c-1.64-4.65-8.86,1.57-12.78.8l-2.4-6.33Z" style="fill:#f7a9a0"></path><path d="M501.61,231.92c1.26-3.84-3.61-8.33-2.94-12.17.92-5.2,6.92-.38,8.51,7.06l.21,6Z" style="fill:#f7a9a0"></path><path d="M501.66,256.18a.05.05,0,0,0,0,.1,30.75,30.75,0,0,0,18.18-1.81c.18-.08.13-.41-.09-.36A62.61,62.61,0,0,1,501.66,256.18Z" style="fill:#263238"></path><path d="M500.49,249.18c-.07,0-.08.11,0,.12a28.82,28.82,0,0,0,19.72-3.2c.2-.13.26-.44,0-.32C516.05,247.89,506.2,249.44,500.49,249.18Z" style="fill:#263238"></path><path d="M519.88,237.58c-5.87,3.26-12.2,4.3-18.85,4.44-.09,0-.08.12,0,.14,3.28.82,7.51.29,10.77-.4a17.68,17.68,0,0,0,8.2-4C520.09,237.71,520,237.51,519.88,237.58Z" style="fill:#263238"></path><path d="M566.37,200.52a8.33,8.33,0,0,0,6,5.33c4.8,1.13,14.2-3.51,17.64-5.82,0,0-5.55-5.4-11.37-5.29C571.76,194.87,566.37,200.52,566.37,200.52Z" style="fill:#f7a9a0"></path><path d="M583.55,196.89c-.16,1-4.28,7.59-8.7,7.71-1.44,0-2-7.81-2-7.81l-.17-.57-2.43-8,9.07-6.84,1.31-.92s.53,2.23,1.15,5c0,.13.06.25.09.39s.07.31.1.45c.1.42.2.84.29,1.26s.14.64.2,1,.13.67.2,1A55.62,55.62,0,0,1,583.55,196.89Z" style="fill:#f7a9a0"></path><path d="M581.77,185.5a16.73,16.73,0,0,1-9.1,10.72l-2.43-8,9.07-6.84,1.31-.92S581.15,182.72,581.77,185.5Z" style="fill:#263238"></path><path d="M557.06,179.13c2.48,14.42,11.4,14.56,14.51,14,2.83-.49,12.38-2.52,11.4-17.12s-8.48-18-15-17.23S554.57,164.7,557.06,179.13Z" style="fill:#f7a9a0"></path><path d="M558.55,175.18c.33-.1.62-.24.94-.37a1.66,1.66,0,0,0,.89-.57.52.52,0,0,0-.11-.62,1.3,1.3,0,0,0-1.31-.08,1.92,1.92,0,0,0-1.06.86A.55.55,0,0,0,558.55,175.18Z" style="fill:#263238"></path><path d="M568,173.2a8.44,8.44,0,0,1-1,0,1.67,1.67,0,0,1-1-.23.53.53,0,0,1-.1-.63,1.27,1.27,0,0,1,1.2-.51,1.89,1.89,0,0,1,1.29.46A.56.56,0,0,1,568,173.2Z" style="fill:#263238"></path><path d="M566.69,177.17s.08,0,.09.08c.11,1,.41,2.1,1.35,2.3a0,0,0,0,1,0,0C567,179.61,566.64,178.13,566.69,177.17Z" style="fill:#263238"></path><path d="M567.42,176c1.57-.35,2.16,2.81.71,3.14S566.1,176.31,567.42,176Z" style="fill:#263238"></path><path d="M568.07,176.06c.31.13.64.39,1,.36s.62-.42.81-.78c0,0,0,0,.06,0a1.18,1.18,0,0,1-.62,1.49c-.58.19-1.11-.27-1.37-.85C567.88,176.2,567.94,176,568.07,176.06Z" style="fill:#263238"></path><path d="M561,178s-.07.06-.06.1c.23,1,.32,2.13-.5,2.62,0,0,0,.07,0,.06C561.52,180.45,561.39,178.93,561,178Z" style="fill:#263238"></path><path d="M560,177.19c-1.6.19-1.1,3.37.37,3.19S561.29,177,560,177.19Z" style="fill:#263238"></path><path d="M559.32,177.5c-.23.21-.43.56-.73.62s-.65-.22-.92-.52c0,0,0,0,0,0,.08.61.38,1.21,1,1.24s.86-.56.91-1.19C559.52,177.58,559.41,177.42,559.32,177.5Z" style="fill:#263238"></path><path d="M568.24,185c-.18.29-.34.65-.68.77a2.91,2.91,0,0,1-1.1,0s-.06,0,0,.06a1.32,1.32,0,0,0,1.35.23,1.05,1.05,0,0,0,.56-1A.05.05,0,0,0,568.24,185Z" style="fill:#263238"></path><path d="M563.51,182.13s.1,1.71.22,2.41a7.7,7.7,0,0,0,3.65-1c.72-.41.49-.57,0-.41a13.75,13.75,0,0,1-3.13.78c-.08-.19-.11-2.56-.22-2.55a6.26,6.26,0,0,0-1.5.63c-.21-3.12.09-6.25-.16-9.36,0-.11-.18-.12-.19,0a50.26,50.26,0,0,0-.26,10.1C561.92,183.06,563.26,182.29,563.51,182.13Z" style="fill:#263238"></path><path d="M582.41,176.86c-3.69.74-7.44-10.28-7.88-11.64.23.87,1.46,5.48,1.15,5.75a3.46,3.46,0,0,1-1.2.06h0a9.66,9.66,0,0,0-.53-1.63,7.24,7.24,0,0,0,.14,1.62c-.22,0-.46,0-.72,0a13.91,13.91,0,0,0-1.19-3.45c-.21-.41.14,1.59.13,3.41a45.52,45.52,0,0,0-10,.59c-.93.19-1.71.38-2.4.58a23.94,23.94,0,0,0-.55-2.52,13.92,13.92,0,0,0,0,2.68l-1,.32c-.55-1.91-.37-5.21-.56-4.67a14.07,14.07,0,0,0-.74,5.21c-1.26.57-1.56.91-1.68.58a16.61,16.61,0,0,1,2.53-11.17c3.56-5.4,12.44-8.66,19.18-3.23,0,0,4.9,1.76,6.63,6.06S584.55,176.42,582.41,176.86Z" style="fill:#263238"></path><path d="M569.11,182.56a4.55,4.55,0,0,1-4.57-4.51h0a4.55,4.55,0,1,1,5.69,4.36A4.09,4.09,0,0,1,569.11,182.56Zm-4-4.52a3.95,3.95,0,1,0,2.94-3.83A3.93,3.93,0,0,0,565.15,178Z" style="fill:#ebebeb"></path><path d="M559.61,183.86c-1.85.26-3.63-1.55-4-4a5.43,5.43,0,0,1,.51-3.28,2.83,2.83,0,0,1,4.8-.67,5.41,5.41,0,0,1,1.39,3c.33,2.35-.75,4.47-2.43,4.91A1.5,1.5,0,0,1,559.61,183.86Zm-2.93-7a4.77,4.77,0,0,0-.45,2.91c.3,2.15,1.78,3.73,3.29,3.52s2.51-2.13,2.21-4.28a4.81,4.81,0,0,0-1.23-2.68,2.41,2.41,0,0,0-2.06-.84l-.23,0A2.48,2.48,0,0,0,556.68,176.83Z" style="fill:#ebebeb"></path><path d="M564.77,178.55l.32-.52c-.76-.48-2.45-1-3.38.3l.49.35C563,177.49,564.7,178.5,564.77,178.55Z" style="fill:#ebebeb"></path><path d="M585,176.91l.49-.36c-.16-.23-1.63-2.26-3-2.29s-9.24,1.86-9.58,1.94l.14.59c2.28-.54,8.44-1.94,9.43-1.92S584.58,176.35,585,176.91Z" style="fill:#ebebeb"></path><path d="M580.86,177.53s1.93-5.23,4.23-4.65,1.65,7.59-.47,9.08a2.48,2.48,0,0,1-3.55-.44Z" style="fill:#f7a9a0"></path><path d="M584.85,174.88a0,0,0,0,1,0,.06,6.28,6.28,0,0,0-2.13,4.61,1.36,1.36,0,0,1,1.88-.88.05.05,0,0,1,0,.1,1.51,1.51,0,0,0-1.48.94,7.25,7.25,0,0,0-.44,1.51c0,.17-.32.16-.31,0v0C581.79,179.06,582.65,175.69,584.85,174.88Z" style="fill:#263238"></path></g><g id="freepik--character-2--inject-68"><path d="M373.86,419.49c-2.2.21-62.21-14.15-64.09-16.1-.24-.22,1-5.67,2.69-13.11l0-.14c1.09-4.72,18.61-42.85,18.61-42.85L370,358.18l-17.71,35.37s7.31,5.3,13.58,10.32l0,0a86.66,86.66,0,0,1,7.92,6.76C375.64,413,376.07,419.3,373.86,419.49Z" style="fill:#eb9481"></path><path d="M373.87,419.49c-2.2.21-62.22-14.15-64.1-16.1-.24-.22.94-5.68,2.69-13.1l0-.15q.08-.31.24-.81c7.71,4,50.9,20.28,53.56,18.28,1-.73-.45-3-2.33-5.26l1.92,1.52s0,0,0,0a85.5,85.5,0,0,1,7.92,6.75C375.64,413,376.07,419.3,373.87,419.49Z" style="fill:#FF725E"></path><path d="M355.16,394.39l-41.67-12.5s34.35-71.57,33.26-75.21c-.72-2.43-52.21-2.6-67.3-16.15C263.83,276.5,276,249,276,249l43.29-.22s-.74,9,.91,10.44c1.09.93,60.29,6.14,71.62,27.91C402.1,306.83,355.16,394.39,355.16,394.39Z" style="fill:#263238"></path><path d="M346.76,306.68c.18.61-.65,3.18-2.18,7l31.12,38.23c11.1-25.3,21.53-54.47,16.11-64.86-11.34-21.76-70.52-27-71.62-27.91-1.65-1.4-.91-10.44-.91-10.44l-27.48.14L337.48,305C343,305.57,346.57,306,346.76,306.68Z" style="fill:#263238"></path><path d="M356.24,385.42a33.71,33.71,0,0,0-3.42-1.19c-1.2-.39-2.41-.79-3.62-1.17-2.39-.74-4.78-1.46-7.18-2.13-4.84-1.37-9.69-2.72-14.55-4-2.54-.66-8-2.1-8.3-2.09a.14.14,0,0,0,0,.27c4.74,1.59,9.52,3,14.31,4.45s9.58,2.84,14.41,4.1l4,1a41.73,41.73,0,0,0,4.26,1C356.28,385.68,356.39,385.48,356.24,385.42Z" style="fill:#455a64"></path><path d="M278.31,257.2c.14-1.45.3-2.89.46-4.33,0-.17.28-.17.27,0-.58,5.86-1.17,11.85-.1,17.68a25.2,25.2,0,0,0,7.74,14c8.59,8,20.6,10.37,31.79,12.27,6.41,1.09,12.85,1.93,19.32,2.56q4.75.47,9.53.77c3.15.19,6.3.22,9.45.4,1,.05,1.88.51,1.73,1.64a8,8,0,0,1-.76,2c-.33.77-.67,1.53-1,2.3-1.26,2.86-2.54,5.71-3.81,8.57q-4,8.82-8,17.58-8.07,17.42-16.75,34.53c-.72,1.42-1.43,2.83-2.16,4.25,0,.09-.18,0-.13-.09q8.28-17.32,16.36-34.77c2.67-5.77,5.35-11.53,8-17.32q2-4.33,3.94-8.68l2-4.35c.33-.73.65-1.45,1-2.18s1.25-2.05.58-2.61c-.45-.38-1.39-.25-1.93-.26l-2.52-.09c-1.59-.05-3.18-.11-4.77-.19q-4.83-.24-9.65-.66c-6.29-.55-12.57-1.35-18.8-2.35-11.12-1.79-23.22-3.81-32.12-11.27a26.71,26.71,0,0,1-8.53-12.45C277.63,268.69,277.79,262.84,278.31,257.2Z" style="fill:#455a64"></path><path d="M441.63,391.72c-2,.88-63.54,5.76-65.94,4.49-.29-.14-.84-5.69-1.49-13.3v-.15c-.42-4.82-5.32-45.91-5.32-45.91l38.46-3.51,5.76,40.38s8.6,2.77,16.11,5.62c0,0,0,0,0,0a86.77,86.77,0,0,1,9.62,4C441.31,385,443.66,390.86,441.63,391.72Z" style="fill:#eb9481"></path><path d="M441.62,391.72c-2,.88-63.53,5.75-65.93,4.49-.28-.14-.85-5.7-1.49-13.3v-.16c0-.28-.06-.69-.11-1.21,13.86,1.43,51.06,3.1,52.78.67,1-1.43-3.7-4.37-7.21-6.3,2.87,1,6.32,2.2,9.56,3.43,0,0,0,0,0,0a83.46,83.46,0,0,1,9.62,4C441.31,385,443.66,390.86,441.62,391.72Z" style="fill:#FF725E"></path><path d="M416.81,366.32l-46,8.65s-9.8-65.28-13.35-69.53c-4.75-5.66-70.94,4.23-85.51-14.06-15.06-18.91-2.15-42.4-2.15-42.4l47,0a39.07,39.07,0,0,1-2.58,12.84s61.21-4.35,76.43,10.44C402.34,283.58,416.81,366.32,416.81,366.32Z" style="fill:#263238"></path><path d="M305.67,266.54a80.18,80.18,0,0,1,7.47-4.57,31.65,31.65,0,0,1,5.67-2.29c1.37-.33,2-.43.69.18-.74.34-2.15,1-3.46,1.64l.73,0c.92-.05,1.85-.08,2.77-.1,1.81-.05,3.62,0,5.42-.05,3.67,0,7.31.33,11,.51.09,0,.09.16,0,.15-3.65-.12-7.32.08-11,.06-1.81,0-3.62,0-5.43.08l-2.65.05a21.11,21.11,0,0,1-2.25,0l-1,.48c-2.66,1.25-5.31,2.56-7.88,4C305.67,266.69,305.59,266.59,305.67,266.54Z" style="fill:#455a64"></path><path d="M317.92,247.19c-.48,2.22-.89,4.46-1.45,6.66-.25,1-.5,2-.85,3-.29.83-.74,1.78-1.68,2s-1.43-.67-1.37-1.58a30.53,30.53,0,0,1,.45-3c.19-1.15.39-2.3.55-3.46.09-.57.18-1.15.26-1.73,0-.14.09-1.25.15-1.56a.06.06,0,0,0,.07,0h0a.11.11,0,0,0,.07-.06.16.16,0,0,0-.06-.17.09.09,0,0,0-.1,0c-.21.12-.21.41-.27.62-.16.56-.32,1.13-.47,1.69-.27,1.06-.53,2.13-.76,3.2s-.46,2.13-.68,3.2a5,5,0,0,0-.13,2.45,1.85,1.85,0,0,0,1.77,1.35,1.51,1.51,0,0,1-.11.22c-.08.22-.15.45-.22.68s-.14.46-.2.7a1.27,1.27,0,0,0-.05.34c0,.13,0,.25,0,.38s.26.31.35.11a3.37,3.37,0,0,1,.19-.32,1.69,1.69,0,0,0,.15-.37c.07-.22.12-.44.17-.67s.11-.45.14-.68,0-.27,0-.41a2.43,2.43,0,0,0,1.25-.52,4.28,4.28,0,0,0,1.25-2.05c.3-.93.53-1.89.75-2.84a41,41,0,0,0,1.17-7.13C318.33,247,318,246.93,317.92,247.19Z" style="fill:#455a64"></path><path d="M295.25,253.51c-.17,1.1-.26,2.21-.47,3.3A31.85,31.85,0,0,1,294,260a11.57,11.57,0,0,1-1.24,2.89,10.75,10.75,0,0,1-2.07,2.24,18.17,18.17,0,0,1-5.07,3.05,23,23,0,0,1-2.84.94c-.5.13-1,.24-1.52.32a3.26,3.26,0,0,0-1.23.33.25.25,0,0,0,0,.43,4.41,4.41,0,0,0,2.28,0,16.38,16.38,0,0,0,2.43-.51,17.74,17.74,0,0,0,4.55-2.1,14.36,14.36,0,0,0,3.75-3.28,11,11,0,0,0,1.91-4.6,22.37,22.37,0,0,0,.47-6.16C295.45,253.4,295.26,253.39,295.25,253.51Z" style="fill:#455a64"></path><path d="M412.14,356.56a35.89,35.89,0,0,0-3.58.52l-3.76.64c-2.45.45-4.91.91-7.35,1.42-4.93,1-9.85,2.06-14.75,3.17-2.55.59-8,1.82-8.32,2a.13.13,0,0,0,.09.25c4.94-.77,9.84-1.72,14.75-2.66s9.81-1.89,14.67-3c1.35-.31,2.69-.65,4-1a38.19,38.19,0,0,0,4.24-1.09C412.29,356.78,412.31,356.55,412.14,356.56Z" style="fill:#455a64"></path><path d="M362.82,305.33c-.45-1.38-.85-2.82-1.42-4.15a3.69,3.69,0,0,0-2.4-2.3,17.11,17.11,0,0,0-4.29-.23c-1.58,0-3.17,0-4.75,0-12.57,0-25.17.35-37.72-.75a119.61,119.61,0,0,1-18.41-2.94c-5.49-1.36-10.67-3.54-14.78-7.6a29.77,29.77,0,0,1-7.58-13,37.57,37.57,0,0,1-.27-18,36.77,36.77,0,0,1,1.21-4.25c0-.09-.12-.13-.15,0a38.48,38.48,0,0,0-2.38,17.62,31.47,31.47,0,0,0,5.49,14.64,27.33,27.33,0,0,0,11.94,9.52c5.56,2.29,11.65,3.34,17.57,4.15,12.46,1.73,25.06,1.64,37.61,1.56,3.13,0,6.26,0,9.39,0l4.75,0c1.5,0,3,0,3.8,1.53a23.78,23.78,0,0,1,1.47,4.23c.48,1.53,1,3,1.41,4.58.93,3.06,10.31,50.51,10.57,52.08,0,.24.43.12.39-.12C372.6,351,364.78,311.36,362.82,305.33Z" style="fill:#455a64"></path><path d="M363,326.4c-.66-3.26-1.37-6.52-2.1-9.77s-1.31-6.43-2.2-9.57a4.35,4.35,0,0,0-2.06-2.81,8.68,8.68,0,0,0-3.4-.83c-3.26-.32-6.53-.48-9.8-.56-3.74-.09-19.2.19-21.06.32-.52,0-.15.2.36.2,1.76,0,14.5,0,17.76.11s6.42.3,9.62.55a38,38,0,0,1,4.39.46,3.68,3.68,0,0,1,3,2.08,26.59,26.59,0,0,1,1,4.34c.34,1.57.68,3.14,1,4.71q1,4.71,2,9.42c1.3,6.38,2.42,12.78,3.46,19.2,1.16,7.19,2.71,14.31,3.88,21.5.09.54.62.46.54-.09C367.48,352.54,365.67,339.4,363,326.4Z" style="fill:#455a64"></path><path d="M330.88,212a.49.49,0,0,1-.48.44l-1.92-.28c-.76-5.13-1.85-9.32-1.66-7.74a27,27,0,0,1-.24,7.46l-3.79-.62c.18-8.71-.48-15.34-.74-13.4-1.06,7.85-2,10.25-3,12.8-9.15-1.52-21.12-3.64-29.75-5.37-.07-4.86.06-10.07-.16-9.75-1.7,2.37-2.77,6.1-3.37,9-2.75-.58-4.93-1.09-6.24-1.47,0,0,.13-4,.29-5.35a29,29,0,0,1,2.9-9.56,49.94,49.94,0,0,1,5.77-8.2l0-.06,0,0a28.81,28.81,0,0,0,3.48-5.55.11.11,0,0,0,0-.05,29.51,29.51,0,0,0,1.63-4.49c1.53-5.64,5.52-9.94,10.83-10.37,11.36-7.52,20-1.44,21.45,6.52.13.77.24,1.65.32,2.6v0c.32,3.52.33,8,.48,11.5a0,0,0,0,0,0,0s0,0,0,0h0a34.26,34.26,0,0,0,.37,4.08C328.34,190.72,333.14,195.3,330.88,212Z" style="fill:#263238"></path><path d="M302,160.53a10.78,10.78,0,0,0-7.54,7.46,29.81,29.81,0,0,1-2.73,6.83,25.11,25.11,0,0,1-5,5.44,19.29,19.29,0,0,0-6.34,9.34,34.43,34.43,0,0,0-1.44,13.22,0,0,0,1,0,0,0,36.5,36.5,0,0,1,2.25-13.62c1.62-4.38,4.57-6.72,7.7-9.63a19.61,19.61,0,0,0,5.43-8.48c.65-2,1-4.17,2.21-6,1.39-2.13,3.52-3.21,5.61-4.12C302.45,160.88,302.3,160.45,302,160.53Z" style="fill:#263238"></path><path d="M331.38,191.83c-1.68-3.75-3.55-7-4.11-11.37-.51-3.93-.45-8-1-11.91,0-.06-.1-.05-.09,0,.65,6.93-.27,13.59,2.56,19.91,1.53,3.43,3.11,6.65,3.81,10.52a34.79,34.79,0,0,1-.13,12.25c0,.15.15.18.19,0A28.6,28.6,0,0,0,331.38,191.83Z" style="fill:#263238"></path><path d="M300.81,200.08c2.89,8.78,24.48,46.51,44.84,48.26,6.91.6,9.47-28.54.2-57.57-.27-.86-20.2,1-20.77,5.94-.07.54,1.5,14.06,2,13.79s-6.93-5.57-19.42-14.19C301.79,192.23,299.09,194.83,300.81,200.08Z" style="fill:#eb9481"></path><path d="M326.84,209.44q1.5,10.34,3.46,20.61c.37,1.91.72,3.82,1.08,5.73a.06.06,0,0,1-.11,0,98.32,98.32,0,0,1-2.52-10.15c-.67-3.38-1.26-6.83-1.59-10.27q-.29-3-.46-5.94C326.7,209.36,326.82,209.35,326.84,209.44Z" style="fill:#263238"></path><path d="M346.18,191.92c-.45-1.39-3.31-13.3-7.39-18.24-2.15-2.62-8.89-9.13-10.65-8-1.6,1-.19,3.26-.19,3.26s-3.05-2.86-5.26-1.43.36,5.1.36,5.1-3.34-2.71-5.44-1.12,1.1,4.84,1.1,4.84-2.95-2.62-4.12-.58c-1.42,2.45,4.55,6.67,6.39,9.94.42.75,7.4,15.66,7.4,15.66Z" style="fill:#eb9481"></path><path d="M318.66,176.45c4.39,3.12,5.77,5.24,7.78,10.13,0,.1.19.06.16,0-1.54-5-2.88-7.88-7.8-10.31C318.56,176.12,318.45,176.31,318.66,176.45Z" style="fill:#263238"></path><path d="M323,172.73c4.27,3.63,5.78,5.92,8.27,10.89,0,.07.16,0,.13-.05-2-5.09-3.44-8-8.18-11C323,172.41,322.79,172.57,323,172.73Z" style="fill:#263238"></path><path d="M328.06,169.16c3.88,3.81,5.65,6.25,7.45,11.39a.1.1,0,0,0,.19-.06,18,18,0,0,0-7.51-11.43C327.92,168.85,327.82,168.92,328.06,169.16Z" style="fill:#263238"></path><path d="M327.27,205.52a65.5,65.5,0,0,1-6.65-7.09c-1.72-2.5-4.7-14.15-2.22-14.94,3.21-1,6.25,5.37,7.34,8.7,0,0,7.41-2.36,10.59,1.75S327.27,205.52,327.27,205.52Z" style="fill:#eb9481"></path><path d="M319.37,183.5c3.59,1.18,4.73,5.64,6,8.78a.31.31,0,0,0,.49.14c3.17-.78,7.87-1,10.46,1.31a.08.08,0,0,0,.12-.11c-2.45-2.81-7.08-3-10.5-1.94-1.28-3.25-2.62-7.67-6.59-8.22A0,0,0,0,0,319.37,183.5Z" style="fill:#263238"></path><path d="M320.87,251.14s-18.74,4.44-54.25,1.37c0,0,13.89-44.31,25.07-56.26,5.09-5.44,10.06-4.61,14.27-1.11,1.05.88,14.09,17.42,15.2,23.19,1,5.09-3.17,10.75-3.17,10.75Z" style="fill:#455a64"></path><path d="M284.93,232a6.06,6.06,0,0,1,.85-1.45,5.88,5.88,0,0,1-.48,1.61,6.32,6.32,0,0,1-.85,1.46A6,6,0,0,1,284.93,232Zm14.8-17.38a6.26,6.26,0,0,0,.85-1.45,6.05,6.05,0,0,0,.48-1.62,6.26,6.26,0,0,0-.85,1.45A6.44,6.44,0,0,0,299.73,214.57Zm-27.35,36.19a6.7,6.7,0,0,0,.85-1.46,6.2,6.2,0,0,0,.48-1.62,6.36,6.36,0,0,0-.86,1.46A6.19,6.19,0,0,0,272.38,250.76Zm33.95-12.69a6.63,6.63,0,0,0,.85-1.45,6.44,6.44,0,0,0,.48-1.62,6.52,6.52,0,0,0-.86,1.45A6.42,6.42,0,0,0,306.33,238.07Zm-11.1-41.53a6.36,6.36,0,0,0,.86-1.46,6.61,6.61,0,0,0,.48-1.62,6.36,6.36,0,0,0-.86,1.46A6.61,6.61,0,0,0,295.23,196.54Zm2.83,34.51a6.06,6.06,0,0,0-1.45-.85,6,6,0,0,0-1.62-.48,6.32,6.32,0,0,0,1.46.85A5.88,5.88,0,0,0,298.06,231.05Zm17.85-8.92a6.32,6.32,0,0,0-1.46-.85,5.84,5.84,0,0,0-1.62-.48,6.32,6.32,0,0,0,1.46.85A6.2,6.2,0,0,0,315.91,222.13Zm-11.16-22.85a6.63,6.63,0,0,0-1.45-.85,6.88,6.88,0,0,0-1.62-.48,6.3,6.3,0,0,0,1.45.86A6.42,6.42,0,0,0,304.75,199.28Zm.85,49.89a6.1,6.1,0,0,0-1.45-.86,6.74,6.74,0,0,0-1.62-.48,6.36,6.36,0,0,0,1.46.86A6.66,6.66,0,0,0,305.6,249.17Zm-19.41-38.63a6.32,6.32,0,0,0-1.46-.85,5.88,5.88,0,0,0-1.61-.48,6.06,6.06,0,0,0,1.45.85A6,6,0,0,0,286.19,210.54Zm-3.14,33.86a6.32,6.32,0,0,0-1.46-.85,5.84,5.84,0,0,0-1.62-.48,6.32,6.32,0,0,0,1.46.85A6.2,6.2,0,0,0,283.05,244.4Zm8.78-4.19a5.92,5.92,0,0,0,1.63-.42A6,6,0,0,0,295,239a7.08,7.08,0,0,0-3.12,1.23Zm22.5-7.62a6.42,6.42,0,0,0,1.63-.43,6,6,0,0,0,1.48-.81,6.31,6.31,0,0,0-1.63.43A6,6,0,0,0,314.33,232.59Zm-24.82-13.9a6.31,6.31,0,0,0,1.63-.43,6,6,0,0,0,1.49-.81,6.5,6.5,0,0,0-1.64.43A6.13,6.13,0,0,0,289.51,218.69Zm17.09-9.36a6.78,6.78,0,0,0,3.12-1.23,7.21,7.21,0,0,0-3.12,1.23ZM273,236.42a5.92,5.92,0,0,0,1.63-.42,6,6,0,0,0,1.49-.81,7.08,7.08,0,0,0-3.12,1.23Zm6.11-16a6.78,6.78,0,0,0,1.23,3.12,7.21,7.21,0,0,0-1.23-3.12Zm25.19,2.33a6.89,6.89,0,0,0,1.23,3.12,7.08,7.08,0,0,0-1.23-3.12Zm9.48,21.85a7.08,7.08,0,0,0,1.23,3.12,5.92,5.92,0,0,0-.42-1.63A6,6,0,0,0,313.81,244.61Zm-24.29,3.55a6.31,6.31,0,0,0,.43,1.63,6.51,6.51,0,0,0,.8,1.49,6.37,6.37,0,0,0-.42-1.64A6.9,6.9,0,0,0,289.52,248.16Zm3.35-44.07a6,6,0,0,0,.42,1.63,6,6,0,0,0,.81,1.48,6.31,6.31,0,0,0-.43-1.63A6.25,6.25,0,0,0,292.87,204.09ZM316.18,211a7.21,7.21,0,0,0,1.23,3.12,6,6,0,0,0-.42-1.64A6.13,6.13,0,0,0,316.18,211Z" style="fill:#fff"></path><path d="M312.84,203.91c1.63,2.61,3.41,5.13,5.05,7.72a36.32,36.32,0,0,1,2.29,4A10.1,10.1,0,0,1,321.3,220a7.54,7.54,0,0,0-.09-2.32,10.28,10.28,0,0,0-.69-2.23,30.79,30.79,0,0,0-2.22-4.07c-.79-1.17-1.59-2.35-2.42-3.49-.14-.41-.3-.81-.45-1.2a14.76,14.76,0,0,0-.86-1.68,16,16,0,0,0,.63,1.76c.08.17.15.32.22.49Q314.16,205.55,312.84,203.91Z" style="fill:#263238"></path><path d="M297.79,194.07c0,1,3.41,7.91,7.74,8.5,1.41.19,2.8-7.47,2.8-7.47l.23-.54,3.23-7.59-8.19-7.69-1.2-1s-.75,2.13-1.65,4.8c-.05.12-.09.25-.13.38s-.11.29-.16.43c-.14.4-.28.8-.41,1.21s-.2.61-.3.94l-.3,1A53.57,53.57,0,0,0,297.79,194.07Z" style="fill:#eb9481"></path><path d="M300.75,183.05a16.53,16.53,0,0,0,7.81,11.51l3.23-7.59-8.19-7.69-1.2-1S301.65,180.38,300.75,183.05Z" style="fill:#263238"></path><path d="M325.2,177.25c-1.64,14.38-10.44,15-13.54,14.67-2.82-.33-12.36-1.79-12.21-16.27s7.35-18.26,13.83-17.86S326.85,162.86,325.2,177.25Z" style="fill:#eb9481"></path><path d="M312.91,191.89a11.4,11.4,0,0,0,5.44-1.67,13.16,13.16,0,0,0,3.55-3.66c2.06-3.05,2.74-6.73,3-10.34.18-2.2.17-4.4.24-6.6,0-.16.23-.14.24,0a36.24,36.24,0,0,1-.71,12.29,16.14,16.14,0,0,1-5.77,8.7,9.66,9.66,0,0,1-6,1.42C312.8,192,312.81,191.9,312.91,191.89Z" style="fill:#263238"></path><path d="M323.76,173.78a9.17,9.17,0,0,0-.88-.46,1.57,1.57,0,0,0-1-.31.51.51,0,0,0-.39.48,1.25,1.25,0,0,0,.76,1,1.9,1.9,0,0,0,1.32.24A.55.55,0,0,0,323.76,173.78Z" style="fill:#263238"></path><path d="M313.31,172.75c.32-.11.63-.17.95-.26a1.65,1.65,0,0,1,1-.07.5.5,0,0,1,.28.55,1.27,1.27,0,0,1-1,.83,1.9,1.9,0,0,1-1.33-.05A.55.55,0,0,1,313.31,172.75Z" style="fill:#263238"></path><path d="M313.86,185c.18.27.35.63.69.72a2.46,2.46,0,0,0,1.08,0s.06,0,0,.06a1.29,1.29,0,0,1-1.31.28,1,1,0,0,1-.59-1C313.75,185,313.83,185,313.86,185Z" style="fill:#263238"></path><path d="M318.38,182.05s0,1.47-.09,2.16a14.35,14.35,0,0,0-4.07-.1c-.08,0-.21-.16,0-.26a6.56,6.56,0,0,1,3.57-.28,18.78,18.78,0,0,1,.05-2.29,6,6,0,0,1,1.49.56c.09-3.07-.32-6.12-.19-9.17,0-.11.17-.12.18,0a48.89,48.89,0,0,1,.63,9.87C320,182.91,318.63,182.21,318.38,182.05Z" style="fill:#263238"></path><path d="M320.69,177.78s.08.05.07.09c-.13,1-.11,2.08.73,2.48a0,0,0,0,1,0,.06C320.43,180.15,320.42,178.66,320.69,177.78Z" style="fill:#263238"></path><path d="M322.57,178.43a1.47,1.47,0,0,0,.23.26.66.66,0,0,0,.52.15c.58-.07.82-.69.83-1.28,0,0,0-.07,0,0-.23.31-.51.63-.85.59a1.25,1.25,0,0,1-.59-.39A3.38,3.38,0,0,1,322.57,178.43Z" style="fill:#263238"></path><path d="M320.54,179a1.52,1.52,0,0,0,.27.76,1.12,1.12,0,0,0,.76.42,1,1,0,0,0,.82-.35,1.61,1.61,0,0,0,.34-.71,2.54,2.54,0,0,0,.07-.47,2.1,2.1,0,0,0-.13-1,3.38,3.38,0,0,1-.1.71,4.44,4.44,0,0,1-.19.62c-.17.4-.44.73-.77.69s-.6-.33-.7-.76a6.68,6.68,0,0,1-.16-1.37A3.12,3.12,0,0,0,320.54,179Z" style="fill:#263238"></path><path d="M315.33,177s-.08,0-.08.08c0,1-.25,2.06-1.14,2.32,0,0,0,.06,0,.05C315.19,179.37,315.45,177.91,315.33,177Z" style="fill:#263238"></path><path d="M313.37,177.31a1.09,1.09,0,0,1-.27.22.67.67,0,0,1-.54.06c-.56-.18-.68-.82-.6-1.41,0,0,0-.06.05,0,.18.35.39.71.73.73a1.22,1.22,0,0,0,.66-.29A2.9,2.9,0,0,0,313.37,177.31Z" style="fill:#263238"></path><path d="M315.27,178.26a1.47,1.47,0,0,1-.4.7,1.07,1.07,0,0,1-.82.28,1,1,0,0,1-.74-.48,1.62,1.62,0,0,1-.22-.76,2.44,2.44,0,0,1,0-.47,2,2,0,0,1,.3-.94,2.9,2.9,0,0,0,0,.72,4.48,4.48,0,0,0,.08.64c.1.43.31.8.65.81s.64-.22.82-.63a7.27,7.27,0,0,0,.38-1.32A3.1,3.1,0,0,1,315.27,178.26Z" style="fill:#263238"></path><path d="M300.39,176.89c1.57,0,6-4,6.71-11.54,0,0-1.11,6.75-1.7,7.71s2.47-2.26,3.13-8.35a25.14,25.14,0,0,0,6,3.74c2.83,1,4.59,1.14,4.82,1s-3.92-1.86-5-3.28c0,0,7.4,4.17,10.92,4.71.41.07,1.55-8.31-3.64-12.31s-14.17-.82-16.67,1.25c0,0-2.77.18-6.06,4S298.69,176.86,300.39,176.89Z" style="fill:#263238"></path><path d="M298.81,181a3,3,0,0,0,.63.31,2.4,2.4,0,0,0,.66.15,2,2,0,0,0,.87-.1,2.38,2.38,0,0,0,.62-.3,2.81,2.81,0,0,0,.7-.69v-3.95s-2.2-5.06-4.43-4.36S296.63,179.6,298.81,181Z" style="fill:#eb9481"></path><path d="M298.19,174a0,0,0,0,0,0,.06,6.21,6.21,0,0,1,2.37,4.44,1.35,1.35,0,0,0-1.91-.77c-.05,0,0,.1,0,.1a1.5,1.5,0,0,1,1.52.84,7.55,7.55,0,0,1,.52,1.47c0,.17.33.14.3,0v0C301.45,177.93,300.41,174.65,298.19,174Z" style="fill:#263238"></path><path d="M299.13,180.4a.67.67,0,1,0,.67-.67A.67.67,0,0,0,299.13,180.4Z" style="fill:#fff"></path><path d="M298,179.13a.48.48,0,1,0,.48-.47A.47.47,0,0,0,298,179.13Z" style="fill:#fff"></path><path d="M288.4,199.28c-11.43,14.15-29,41.09-22.95,47.15,10,10,41.31,18.19,48.52,19.78,3.11.68,11.4-19.28,9.55-22.15s-35.26-8-35.3-10.07c0-1.18,4.47-16.83,7.68-28.76C299.78,190.79,294,192.32,288.4,199.28Z" style="fill:#eb9481"></path><path d="M318.18,241.84s9.65.86,15.93,1.71c3.51.48,9.45,1.84,11.86,3.37,3.62,2.29,17.26,14.16,14.45,17.53-2.54,3.05-13-8.64-13-8.64s11.57,10.87,7.83,14-13.76-11.67-13.76-11.67,11.63,11.44,7.27,14c-3.29,2-13.13-10.91-13.13-10.91s9.93,9.89,6.63,12.06c-3.65,2.39-13.47-8.92-13.47-8.92-9.32,4.09-15.43,2.23-19.62.38C308.19,264.33,318.18,241.84,318.18,241.84Z" style="fill:#eb9481"></path><path d="M343.69,251.8c1.41,1.22,2.84,2.46,4.13,3.81s2.53,2.74,3.69,4.2a31.25,31.25,0,0,1,4,6.12c-2.21-3.74-6.75-8.63-8-10s-2.51-2.76-3.8-4.11C343.61,251.81,343.66,251.77,343.69,251.8Z" style="fill:#263238"></path><path d="M338.74,256.37c1.73,1.64,3.5,3.21,5.15,4.94s3.06,3.48,4.58,5.3c.12.14,0,.16-.12,0-1.59-1.76-3.2-3.26-4.82-5s-3.16-3.55-4.83-5.22A0,0,0,1,1,338.74,256.37Z" style="fill:#263238"></path><path d="M333.78,259.53a52.89,52.89,0,0,1,7.31,8.15c.11.14,0,.15-.16,0-2.38-2.76-4.22-4.93-7.23-8.06C333.65,259.58,333.73,259.48,333.78,259.53Z" style="fill:#263238"></path><path d="M344.76,246a17.71,17.71,0,0,0-3.23-1.14,72.37,72.37,0,0,0-8.23-1.39c-.1,0-.13.14,0,.15,1.34.2,8.77,1.55,11,2.7.49.26,2.5,1.36,3,1.62.07,0,.15,0,.1-.11A8.93,8.93,0,0,0,344.76,246Z" style="fill:#263238"></path></g><g id="freepik--character-1--inject-68"><path d="M237.41,417.59c-2.15.27-60.77-13.4-62.67-15.25-.24-.2,2.54-11.46,2.54-11.46.31-1.52,2.15-6.63,4.51-12.82l36.68,8.56-2.93,6.32s7.31,4.95,13.59,9.66v0a84.39,84.39,0,0,1,8,6.35C239,411.21,239.55,417.34,237.41,417.59Z" style="fill:#ebebeb"></path><path d="M237.57,417.76c-2.22.23-61.31-13-63.24-14.94-.74-.72,4.5-19.76,4.52-19.87l37.83,8.35-.16.65s19,14.57,20.9,16.91S239.79,417.54,237.57,417.76Z" style="fill:#FF725E"></path><path d="M237.42,415.32c-9.91-2.47-50.1-11.53-60.08-13.23-.08,0-.09,0,0,.07,9.76,2.67,50,11.4,60,13.33C237.6,415.53,237.63,415.38,237.42,415.32Z" style="fill:#263238"></path><path d="M219.56,391.76c-3.76-1.61-8.69-2.08-12.31,0-.14.09,0,.28.11.27a56.64,56.64,0,0,1,12.07.19A.26.26,0,0,0,219.56,391.76Z" style="fill:#263238"></path><path d="M222,394.1c-3.75-1.61-8.68-2.09-12.3,0-.14.08,0,.28.11.27a56.65,56.65,0,0,1,12.07.19A.26.26,0,0,0,222,394.1Z" style="fill:#263238"></path><path d="M224.45,396.43c-3.76-1.6-8.68-2.08-12.31,0-.14.08,0,.28.12.27a55.9,55.9,0,0,1,12.06.19A.26.26,0,0,0,224.45,396.43Z" style="fill:#263238"></path><path d="M226.57,384.36c-1.06-2.46-4.14-2.15-6.09-1.14a21.4,21.4,0,0,0-8,7.61.1.1,0,0,0,.06.16c-.06.3.14.68.5.63,3.51-.47,7.32-.54,10.57-2.07C225.46,388.65,227.58,386.7,226.57,384.36Zm-8.41,5.46c-1.72.27-3.44.46-5.15.8,1.58-1.48,3.08-3,4.81-4.35a21.8,21.8,0,0,1,2.58-1.77c1.4-.8,6.53-2,4.87,2.12C224.36,388.9,220.21,389.49,218.16,389.82Z" style="fill:#263238"></path><path d="M202.7,387.58c2.92,2.1,6.65,2.86,10,4a.5.5,0,0,0,.61-.52c.06,0,.12-.07.09-.15a21.46,21.46,0,0,0-6.53-9c-1.73-1.34-4.7-2.21-6.2,0S201,386.35,202.7,387.58Zm-1.15-3.19c-.87-4.37,3.95-2.24,5.18-1.2a23.15,23.15,0,0,1,2.21,2.22,62.91,62.91,0,0,1,3.93,5.14c-1.62-.64-3.28-1.14-4.92-1.72C206,388.13,202,386.8,201.55,384.39Z" style="fill:#263238"></path><path d="M218.54,391.62l-40.88-9.15s33.71-78.23,30.73-82.19c-1.49-2-39.37-2.55-51.41-12.76-15.65-13.26-5.15-33.51-5.15-33.51l42.3-1.26s-.51,8.84,1.14,10.17c1.08.89,51.49,5.12,57,22.11C259.08,305.85,218.54,391.62,218.54,391.62Z" style="fill:#37474f"></path><path d="M219.71,384.23c-1.08-.45-11.64-3.45-14-4.05-4.76-1.22-9.53-2.42-14.31-3.54-2.5-.59-7.84-1.86-8.16-1.84a.13.13,0,0,0,0,.26c4.67,1.46,9.38,2.73,14.09,4s20.91,5.25,22.32,5.4C219.75,384.49,219.86,384.29,219.71,384.23Z" style="fill:#263238"></path><path d="M215.62,296.78a6.51,6.51,0,0,0-3.19-1l-18.31-3.07c-5.72-1-11.46-1.81-17.15-2.91-4.71-.9-9.5-2.13-13.57-4.68a19.68,19.68,0,0,1-8.32-10.88A35.26,35.26,0,0,1,154,260.31c.11-1.14.32-2.27.54-3.39,0-.09-.13-.11-.14,0-1.55,8.66-1.69,18.72,4.81,25.62,3.17,3.37,7.52,5.35,12,6.63a135.57,135.57,0,0,0,15.38,3q9.16,1.53,18.32,3.06c2.94.49,5.92.87,8.84,1.48a3.07,3.07,0,0,1,1.59.7,2.27,2.27,0,0,1,.25,2.12c-.29,1.44-.68,2.86-1.09,4.27-3.33,11.37-25.83,65.64-26.49,66.89-.07.13.14.23.21.1,5.6-10,21.9-51.89,25.6-62.64a66.16,66.16,0,0,0,2.4-8.38C216.4,298.7,216.52,297.55,215.62,296.78Z" style="fill:#263238"></path><path d="M318.45,418.27c-2.12.7-62.68.41-65-1.07-.88-.54-1.36-9.36-1.62-20,0-.11,0-.22,0-.33l39.08-.25,0,.66s23.13,10.47,25.49,12.36S320.57,417.57,318.45,418.27Z" style="fill:#FF725E"></path><path d="M317.77,415.92c-10.2-.3-51.41-.55-61.52-.07-.08,0-.08.06,0,.07,10.11.51,51.31.42,61.52.16C318,416.08,318,415.92,317.77,415.92Z" style="fill:#263238"></path><path d="M295.27,396.72c-4-.76-8.93-.17-12,2.67-.12.11,0,.28.17.24a56.7,56.7,0,0,1,11.83-2.4A.26.26,0,0,0,295.27,396.72Z" style="fill:#263238"></path><path d="M298.16,398.48c-4-.77-8.93-.17-12,2.67-.12.11,0,.28.17.24a56.48,56.48,0,0,1,11.82-2.4A.26.26,0,0,0,298.16,398.48Z" style="fill:#263238"></path><path d="M301.05,400.24c-4-.77-8.93-.17-12,2.67-.12.11,0,.28.17.24a56.61,56.61,0,0,1,11.82-2.4A.26.26,0,0,0,301.05,400.24Z" style="fill:#263238"></path><path d="M300.53,388c-1.56-2.18-4.51-1.22-6.19.18a21.44,21.44,0,0,0-6.23,9.16c0,.08,0,.13.09.15a.5.5,0,0,0,.63.5c3.32-1.21,7-2.09,9.88-4.29C300.37,392.42,302,390.06,300.53,388Zm-7,7.13c-1.62.63-3.26,1.18-4.86,1.88a63,63,0,0,1,3.76-5.27,24.37,24.37,0,0,1,2.14-2.29c1.2-1.08,5.94-3.37,5.21,1C299.34,392.91,295.42,394.37,293.49,395.13Z" style="fill:#263238"></path><path d="M277.9,396.24c3.31,1.43,7.11,1.38,10.63,1.73a.5.5,0,0,0,.49-.64.1.1,0,0,0,.05-.16,21.46,21.46,0,0,0-8.29-7.35c-2-.94-5.07-1.15-6.06,1.34S276,395.41,277.9,396.24Zm-1.8-2.86c-1.79-4.09,3.37-3,4.8-2.28a22.74,22.74,0,0,1,2.64,1.69c1.76,1.26,3.32,2.76,4.94,4.18-1.72-.28-3.45-.41-5.17-.63C281.25,396.08,277.09,395.63,276.1,393.38Z" style="fill:#263238"></path><path d="M294.61,397l-44.05,0s-18.85-74.78-22.19-79.05c-4.44-5.68-66.68-5.55-80-24.07-12-16.64-1.87-40.19-1.87-40.19l47.13-1.4a96.83,96.83,0,0,1-4.37,14.83s56.78,10.46,72.69,27.85C272.65,306.68,294.61,397,294.61,397Z" style="fill:#37474f"></path><path d="M197.45,263.86a22.61,22.61,0,0,0-4,1.28c-1.35.52-2.69,1.1-4,1.74a79.09,79.09,0,0,0-7.45,4.21c-.08.05,0,.15.07.11,2.55-1.32,5.18-2.51,7.82-3.65l3.81-1.64a40.14,40.14,0,0,0,3.85-1.7A.19.19,0,0,0,197.45,263.86Z" style="fill:#263238"></path><path d="M194.63,252.24c-.54,2.15-1,4.32-1.63,6.45-.28,1-.56,2-.93,2.92s-.79,1.71-1.71,1.89c-1.07.2-1.38-.71-1.29-1.59s.35-2,.54-2.94.46-2.23.66-3.35c.1-.56.21-1.12.3-1.68,0-.14.13-1.21.21-1.52,0,0,0,.05.06.05h0a.08.08,0,0,0,.07-.05c0-.09,0-.11-.06-.16a.06.06,0,0,0-.09,0c-.21.11-.22.39-.29.6-.17.54-.35,1.08-.51,1.63-.3,1-.59,2-.85,3.09s-.51,2.07-.77,3.11a5,5,0,0,0-.21,2.38,1.84,1.84,0,0,0,1.69,1.38c0,.07-.08.13-.11.21s-.16.43-.24.65-.16.44-.22.67a1.91,1.91,0,0,0-.06.33c0,.13,0,.25,0,.38a.18.18,0,0,0,.34.12,1.57,1.57,0,0,1,.2-.3,2.75,2.75,0,0,0,.15-.36c.07-.22.14-.43.19-.65s.12-.44.16-.66a2.58,2.58,0,0,0,0-.4,2.37,2.37,0,0,0,1.24-.47,4.14,4.14,0,0,0,1.29-2c.32-.89.57-1.82.83-2.74a40.74,40.74,0,0,0,1.37-6.92C195,252.08,194.69,252,194.63,252.24Z" style="fill:#263238"></path><path d="M166.6,257.5c-.2,1.07-.32,2.15-.57,3.2s-.52,2.07-.86,3.08a11.34,11.34,0,0,1-1.31,2.77,10.5,10.5,0,0,1-2.09,2.12,17.89,17.89,0,0,1-5.05,2.81,23.13,23.13,0,0,1-2.81.82q-.75.17-1.5.27a3.1,3.1,0,0,0-1.21.27.25.25,0,0,0,0,.42,4.35,4.35,0,0,0,2.24.07,15.15,15.15,0,0,0,2.39-.42,17.19,17.19,0,0,0,4.51-1.89,14.23,14.23,0,0,0,3.77-3.09,10.76,10.76,0,0,0,2-4.41,21.7,21.7,0,0,0,.65-6A.1.1,0,0,0,166.6,257.5Z" style="fill:#263238"></path><path d="M290.05,389.12a34.66,34.66,0,0,0-3.53-.22l-3.72-.14c-2.44-.07-4.88-.12-7.32-.13-4.92,0-9.83,0-14.75.07-2.56,0-8.05.11-8.36.21a.13.13,0,0,0,0,.25c4.88.26,9.76.34,14.65.43s9.76.16,14.63.08c1.36,0,2.7-.08,4.05-.11a40.62,40.62,0,0,0,4.28-.19C290.15,389.36,290.21,389.15,290.05,389.12Z" style="fill:#263238"></path><path d="M233.51,318.55a13.32,13.32,0,0,0-1.84-3.79,6.73,6.73,0,0,0-3.61-1.86c-11.74-3.21-23.86-4.66-35.8-6.91a145,145,0,0,1-17.42-4.25,67.5,67.5,0,0,1-16.48-7.41,18.36,18.36,0,0,1-6.07-6.41,27.93,27.93,0,0,1-2.85-8,48.81,48.81,0,0,1,.05-19.34,45.13,45.13,0,0,1,1.2-4.71c0-.1-.11-.13-.15,0a47.06,47.06,0,0,0-2.65,19.22c.42,5.66,1.8,11.62,5.46,16.12a22.78,22.78,0,0,0,6.77,5.32,73,73,0,0,0,8.3,3.91,110.83,110.83,0,0,0,17.12,5.11c11.91,2.63,24.06,4,36,6.62,1.47.32,2.93.67,4.39,1a15.28,15.28,0,0,1,4.32,1.39c1.42.88,1.88,2.64,2.44,4.1.61,1.62,19.76,66.41,20.19,68,.07.26.47.14.4-.12C251.59,380,234.75,321.73,233.51,318.55Z" style="fill:#263238"></path><path d="M230,320.27c-.45-1.42-.84-2.93-2.15-3.79s-20.17-3.39-22.29-3.71c-.1,0-.13.13,0,.15,1.82.3,19.23,3.42,20.78,3.94A3.47,3.47,0,0,1,228,318a7.45,7.45,0,0,1,1,2.36c.54,1.69,1.08,3.37,1.61,5.06,1.07,3.38,2.15,6.77,3.17,10.17,1.15,3.85,2.48,7.89,3.47,11.79.08.3.5.15.45-.14C236.4,339.89,230.59,322,230,320.27Z" style="fill:#263238"></path><path d="M189.46,267.21a158.91,158.91,0,0,1,25.71,5.27,178.66,178.66,0,0,1,24.81,9c4.51,2,8.88,4.29,13.21,6.66.08.05,0,.18-.08.13A201.7,201.7,0,0,0,229,277.72a194,194,0,0,0-25.13-7.28c-4.8-1.05-9.64-1.86-14.48-2.67C189.05,267.72,189.13,267.17,189.46,267.21Z" style="fill:#263238"></path><path d="M195.22,206.69c9,15,22.18,29.82,28.47,30.5,5.08.56,37.91-13.3,40.43-15.75,2.18-2.11-9.45-22.47-12.57-21.63-5.25,1.42-24.91,13.46-26.37,13s-13-7.56-24.46-15.07C189.77,190.58,189,196.28,195.22,206.69Z" style="fill:#ad6359"></path><path d="M260.41,223.48c2.63-1,14.23-6.77,17.1-9.1s10.66-9.6,9.1-12-4-.43-4-.43,2.8-3.6,1-5.85-5.49.91-5.49.91,2.6-3.91.66-6-5.13,1.68-5.13,1.68,2.54-3.45.21-4.53c-2.81-1.29-6.78,5.62-10.15,7.94-.76.53-16.24,9.61-16.24,9.61Z" style="fill:#ad6359"></path><path d="M273.94,192.36c-2.94,5.07-5.1,6.78-10.21,9.46-.1.05-.05.21.06.17,5.24-2.17,8.27-3.92,10.4-9.5C274.29,192.22,274.08,192.12,273.94,192.36Z" style="fill:#263238"></path><path d="M278.35,196.62c-3.51,5-5.83,6.87-11,10.07-.07.05,0,.17.08.14,5.3-2.72,8.28-4.54,11.13-10C278.71,196.59,278.52,196.39,278.35,196.62Z" style="fill:#263238"></path><path d="M282.34,202.12c-3.75,4.6-6.21,6.76-11.6,9.23a.11.11,0,0,0,.07.2c5.75-2,8.84-4.66,11.66-9.3C282.66,201.94,282.58,201.83,282.34,202.12Z" style="fill:#263238"></path><path d="M242.87,205s3.32-6.55,5.41-9.11,13.4-9.21,15-6.85c2,3.05-3.73,8.18-6.88,10.32,0,0,4.71,7,1.37,11.61S242.87,205,242.87,205Z" style="fill:#ad6359"></path><path d="M263.54,190.08c-.15,4.12-4.47,6.66-7.38,9a.35.35,0,0,0,0,.56c1.78,3.08,3.39,7.95,1.79,11.35a.09.09,0,0,0,.15.09c2.21-3.42,1-8.33-1.14-11.58,3-2.32,7.23-5.06,6.61-9.39C263.57,190.06,263.54,190.06,263.54,190.08Z" style="fill:#263238"></path><path d="M240.54,204.09,256,230s-26.85,9.86-33.17,7.72S209.28,228.8,195.74,208c-10.72-16.5-.57-15.18,6.85-10,6,4.2,21.56,14,23,13.63S240.54,204.09,240.54,204.09Z" style="fill:#FF725E"></path><path d="M256,230s-24.29,8.92-32.1,7.95a5.89,5.89,0,0,1-1.07-.23c-6.32-2.15-13.57-8.94-27.11-29.77-4.74-7.3-5.4-11.11-4-12.65,1.75-1.93,6.73-.26,10.87,2.61,6,4.2,21.56,14,23,13.63s15-7.47,15-7.47Z" style="fill:#FF725E"></path><path d="M235.9,208.07c2,4,4.26,7.84,6.55,11.66,1.12,1.87,2.25,3.75,3.45,5.58s2.6,3.74,3.83,5.65a.08.08,0,0,0,.14-.08c-1.17-1.94-2.19-4-3.32-5.94s-2.22-3.76-3.34-5.64c-2.29-3.82-4.6-7.65-7-11.39A.17.17,0,0,0,235.9,208.07Z" style="fill:#263238"></path><path d="M223.92,238a5.89,5.89,0,0,1-1.07-.23c-6.32-2.15-13.57-8.94-27.11-29.77-4.74-7.3-5.4-11.11-4-12.65Z" style="fill:#263238"></path><path d="M201.29,260.21c-1.46,1.15-58.86,1.21-59.11.8-.64-1.11,15.46-53.31,40.09-69.33,4.34-2.83,10.89-.78,13.72,1.48,1.41,1.13,5.47,9.65,6,16.58S202.21,259.47,201.29,260.21Z" style="fill:#FF725E"></path><path d="M172.19,200.15c-8.48,13.86-23.53,42.42-18.93,50.54s31.5,14,40.71,15.84c3,.62,14.56-20.81,11.57-22.22-5.08-2.39-29.36-7.43-30.1-9.1-.46-1.05,4.79-19.88,5.63-31C182.16,189.73,174.82,195.84,172.19,200.15Z" style="fill:#ad6359"></path><path d="M202.89,243.35s9.56,1.57,15.76,2.89c3.46.74,9.28,2.53,11.58,4.24,3.43,2.55,16.15,15.41,13.1,18.56-2.76,2.85-12.29-9.58-12.29-9.58s10.73,11.7,6.77,14.52S225,261.32,225,261.32s10.75,12.27,6.21,14.54c-3.43,1.71-12.28-11.86-12.28-11.86s9.17,10.61,5.71,12.52c-3.81,2.12-12.77-9.89-12.77-9.89-9.6,3.38-15.55,1.07-19.59-1.08C191.25,265,202.89,243.35,202.89,243.35Z" style="fill:#ad6359"></path><path d="M227.59,255.17c1.31,1.33,2.65,2.67,3.83,4.11s2.33,2.92,3.38,4.47a32.42,32.42,0,0,1,3.5,6.39c-1.93-3.89-6.1-9.11-7.28-10.55s-2.3-2.93-3.48-4.37A0,0,0,0,1,227.59,255.17Z" style="fill:#263238"></path><path d="M222.31,259.37c1.6,1.76,3.25,3.46,4.77,5.3s2.79,3.7,4.18,5.63c.1.15,0,.16-.12,0-1.46-1.87-3-3.49-4.44-5.34s-2.89-3.78-4.43-5.57C222.24,259.37,222.29,259.34,222.31,259.37Z" style="fill:#263238"></path><path d="M217.14,262.15a53.46,53.46,0,0,1,6.67,8.67c.1.15-.05.15-.16,0-2.16-2.93-3.84-5.24-6.6-8.58C217,262.19,217.08,262.09,217.14,262.15Z" style="fill:#263238"></path><path d="M203.77,242.9l-20.09,23.63s-28-7.16-31.82-16.88,10.5-36.43,18.3-47.44,12.55-10.61,11.35,2.2c-1.07,11.47-5.78,29.84-5.35,30.48S203.77,242.9,203.77,242.9Z" style="fill:#FF725E"></path><path d="M196.42,242.27c-3.12,3.19-6.09,6.52-9,9.9-1.43,1.66-2.85,3.33-4.21,5s-2.72,3.66-4.14,5.43c-.07.08,0,.18.12.11,1.47-1.73,3.07-3.34,4.58-5s2.87-3.3,4.29-5c2.9-3.38,5.8-6.78,8.58-10.27A.16.16,0,0,0,196.42,242.27Z" style="fill:#263238"></path><path d="M168,261.19a18.91,18.91,0,0,1-2.57-1.13c-.79-.37-1.56-.78-2.32-1.22a42.48,42.48,0,0,1-4.56-3,35.34,35.34,0,0,1-3.93-3.5,8.66,8.66,0,0,1-2.61-5,18.89,18.89,0,0,1,.37-5.61,53.63,53.63,0,0,1,1.29-5.61,80.63,80.63,0,0,1,4-10.84c1.78-4,3.83-7.78,5.65-11.72a.08.08,0,0,0-.14-.08,119.63,119.63,0,0,0-5.78,10.61,79,79,0,0,0-4.52,11.14,52.51,52.51,0,0,0-1.46,5.81,22.94,22.94,0,0,0-.54,5.78,9,9,0,0,0,2,5.15,24.42,24.42,0,0,0,4,3.82,29.72,29.72,0,0,0,5.14,3.29c.9.44,1.83.84,2.76,1.2s2.07.63,3.09,1C168,261.37,168.07,261.21,168,261.19Z" style="fill:#263238"></path><path d="M202.12,242.4c-2.17-.23-26.17-7-26.2-7s1.46-8.18,1.77-9.72q.94-4.72,2.09-9.41c0-.07.14-.06.13,0-.2,1.91-.46,3.82-.76,5.71.31-.82.64-1.64,1-2.43,0-.07.14,0,.12,0-.47,1.6-1,3.19-1.53,4.77-.08.42-.13.84-.21,1.26-.3,1.58-.62,3.16-1,4.73-.17.77-.84,3.77-1,4.58,3.42.76,23.59,6.48,25.57,7.3C202.23,242.27,202.2,242.41,202.12,242.4Z" style="fill:#263238"></path><path d="M193.12,201.57c-3.3.68-8.79-4.48-10.9-8.6-.14-.28,1.33-11.37,1.39-13.6,0-.46,13.89,3.79,13.89,3.79a35.77,35.77,0,0,0-1.59,8.51C195.91,192,196.31,200.9,193.12,201.57Z" style="fill:#ad6359"></path><path d="M197.51,183.15h0c0,.07-.11.34-.23.78-.22.74-.55,1.95-.82,3.33a25.45,25.45,0,0,0-.54,4.4c0,.11,0,.21,0,.31V192c0,.18,0,.42,0,.71a8.53,8.53,0,0,1-1.36,0c-7.61-.39-9.91-9.8-10.52-13.4a1.18,1.18,0,0,1,.25,0c.36.07.85.19,1.43.33l.44.12c.93.24,2,.55,3.18.87l1.14.33,2.43.7c.33.11.65.21,1,.29s.68.21,1,.29l.45.14.22.07,1.15.34.55.17.23.07h0Z" style="fill:#263238"></path><path d="M183.09,162.69c-2,4.79-.75,19.29,2.45,22.8,4.65,5.1,12.94,6.35,17.45.61,4.38-5.56,2.44-24.43-1.21-27.69C196.41,153.6,186,155.62,183.09,162.69Z" style="fill:#ad6359"></path><path d="M185.2,185.32h0" style="fill:none;stroke:#ad6359;stroke-linecap:round;stroke-linejoin:round;stroke-width:0px"></path><path d="M196.62,173s-.07.05-.07.09c.06,1-.05,2.14-.94,2.5,0,0,0,.06,0,.05C196.72,175.44,196.84,173.91,196.62,173Z" style="fill:#263238"></path><path d="M195.71,172c-1.6-.08-1.65,3.14-.16,3.21S197.05,172,195.71,172Z" style="fill:#263238"></path><path d="M202,172.56s.08.05.08.09c-.06,1,0,2.14.94,2.49a0,0,0,0,1,0,.06C201.93,175,201.8,173.49,202,172.56Z" style="fill:#263238"></path><path d="M202.92,171.54c1.61-.09,1.66,3.12.18,3.2S201.58,171.61,202.92,171.54Z" style="fill:#263238"></path><path d="M195.55,180.9c.22.25.44.58.8.63a2.67,2.67,0,0,0,1.08-.18,0,0,0,0,1,0,.05,1.32,1.32,0,0,1-1.29.46,1,1,0,0,1-.73-.92C195.44,180.88,195.51,180.86,195.55,180.9Z" style="fill:#263238"></path><path d="M200.52,177s.2,1.49.2,2.19a14.75,14.75,0,0,0-4.05.58c-.31.11-.31-.15,0-.36a5.92,5.92,0,0,1,3.41-.83c0-.19-.35-2.28-.24-2.29a6.31,6.31,0,0,1,1.59.36c-.33-3.11-1.16-6.14-1.44-9.25a.09.09,0,0,1,.18,0,51.28,51.28,0,0,1,2,9.89C202.24,177.67,200.8,177.14,200.52,177Z" style="fill:#263238"></path><path d="M199.11,179.27a3.79,3.79,0,0,1-2,1.46c-1.22.17-1.35-.92,0-1.53A3.65,3.65,0,0,1,199.11,179.27Z" style="fill:#263238"></path><path d="M197.12,180.72a2.5,2.5,0,0,0,1.23-.63c-.25-.38-.83-.8-2.13-.11C196,180.45,196.36,180.84,197.12,180.72Z" style="fill:#ff99ba"></path><path d="M193.61,169.15c.41-.18.81-.29,1.23-.43a2.06,2.06,0,0,1,1.33-.2.68.68,0,0,1,.43.7,1.68,1.68,0,0,1-1.2,1.18,2.48,2.48,0,0,1-1.76.06A.72.72,0,0,1,193.61,169.15Z" style="fill:#263238"></path><path d="M204.26,168.5a12.7,12.7,0,0,0-1.2-.51,2.13,2.13,0,0,0-1.32-.29.67.67,0,0,0-.46.68,1.63,1.63,0,0,0,1.12,1.25,2.47,2.47,0,0,0,1.75.17A.71.71,0,0,0,204.26,168.5Z" style="fill:#263238"></path><path d="M203.79,164.22c-5,3.41-11.82-1.76-11.82-1.76a5.44,5.44,0,0,1-5.52,3.43s-1,8.44-3.21,8.42c-3.4,0-4.44-11.53-3.37-13.79s4-2.84,4-2.84a5.53,5.53,0,0,1,2.31-3.36c2.32-1.77,10.32.62,10.32.62a7.48,7.48,0,0,1,2-2.76,2.1,2.1,0,0,1,3,.28,5,5,0,0,0-.81,2.08c-.41,2.47,1.61,2.47,1.6.23a3.47,3.47,0,0,0-.79-2.31c1-1.46,2.63-1.94,3.62-1.15C206.94,152.73,207.94,161.38,203.79,164.22Z" style="fill:#263238"></path><path d="M185,174.6s-2.88-4.86-5.07-3.87-.26,7.86,2.13,9a2.52,2.52,0,0,0,3.46-1.09Z" style="fill:#ad6359"></path><path d="M180.55,172.69s-.05,0,0,.06a6.32,6.32,0,0,1,3,4.2,1.39,1.39,0,0,0-2-.53c-.05,0,0,.1,0,.09a1.57,1.57,0,0,1,1.66.67,7.58,7.58,0,0,1,.7,1.43c.07.16.36.1.31-.08v0C184.37,176.29,182.9,173.09,180.55,172.69Z" style="fill:#263238"></path><path d="M197,195.75s-.05,0-.05,0c.39,3,1.1,9.89-3.62,9.79a10,10,0,0,1-5.22-2.16,25.77,25.77,0,0,1-4.25-3.76,38.26,38.26,0,0,1-4.06-4.93c-.05-.07-.17,0-.11.09a63.15,63.15,0,0,0,3.7,5.22,22.79,22.79,0,0,0,4.6,4.17,9.92,9.92,0,0,0,5.54,2.08,3.79,3.79,0,0,0,3.65-3.11A16.81,16.81,0,0,0,197,195.75Z" style="fill:#263238"></path><path d="M196,192.85l-3.44,8.28-10.21-10.65-3,3.35s9.92,16.83,10,16.08l3.51-7.13,4.89,5-.26-12.53Z" style="fill:#ebebeb"></path><path d="M198,201.62c-.11-2.06-.16-4.15-.37-6.21,0-.07-.12-.11-.14,0-.44,2,0,9.89,0,11.78l0,0c-.2-.22-4.54-4.44-4.58-4.37-.76,1.13-3.33,6.32-3.51,6.79-1.57-2.67-7.59-12.4-9.45-14.93,0-.07-.17,0-.12.07,1.38,2.82,9.34,15.92,9.46,15.88a77.32,77.32,0,0,0,3.67-7.54c.73.92,5.1,5.68,5.12,5.37A61.71,61.71,0,0,0,198,201.62Z" style="fill:#263238"></path></g><g id="freepik--Plant--inject-68"><path d="M93.36,322.68a85.12,85.12,0,0,1,2-13.94c1-4.13,2.37-8.35,5-11.76a14.93,14.93,0,0,1,9.76-6.09c3.83-.47,7.42,1.24,10.28,3.65,3.55,3,6.26,6.94,8.81,10.77a132.55,132.55,0,0,1,7.61,13.31c.07.15-.16.28-.23.13a83.37,83.37,0,0,0-6.81-11.14,70.51,70.51,0,0,0-7.83-9.49c-2.63-2.56-6-5-9.77-5.08A12,12,0,0,0,102.6,298c-2.55,3.26-3.85,7.34-4.82,11.31a84.78,84.78,0,0,0-2,13.27c-.75,9.19-.95,18.43-1.16,27.64q-.18,7.81-.23,15.64,0,4-.07,7.92a48.64,48.64,0,0,1-.3,7.64c-.09.52-.93.47-1,0a46,46,0,0,1-.36-7.24c0-2.5-.06-5-.08-7.51q-.08-7.31-.06-14.61C92.58,342.24,92.7,332.43,93.36,322.68Z" style="fill:#263238"></path><path d="M106.49,315.76c.49-2.6,1.36-6,2.84-8,2.66-3.61,5.53-2,2.88,2a23.77,23.77,0,0,0-3.73,9.88s4.47,6.38,9.86,9.53c-.23-2.46-.92-6.24-.44-9.88,1-7.89,5.81-7.44,4.63-1.18a54,54,0,0,0-1.08,12.68,26.66,26.66,0,0,0,5.76,2.82c-.31-.91-.64-2-1-3.34-1.91-7.07,2.8-9.28,3-5.3A55.4,55.4,0,0,0,131,335c2.59.87,4.73,1.47,6,1.93a22.08,22.08,0,0,1,8.85,6,27.82,27.82,0,0,0,6-7.8c-1.64-1.42-4.25-3.53-7.87-6.08-6.78-4.78-4.42-10.83,1-7.07,3.88,2.71,6.89,7.74,8.25,10.32a42,42,0,0,0,3.08-14.12c-5.33-5-18.5-12-14.53-12,3.57,0,11.57,5.24,14.5,7.26a38.08,38.08,0,0,0-.45-4.1c-5-3.29-21.32-8.41-18.72-9.88,2.85-1.61,14.23,3.65,17.67,5.32a20.84,20.84,0,0,0-3-6.24c-6.93-9.28-19.43-12.48-24.88-10.71-3.86,1.25-2.73,11-3.56,10.71C107.84,292.33,100.79,296.74,106.49,315.76Zm38-1.08c1.1-1.33,6.18,2.58,4.71,4.72S143.07,316.39,144.49,314.68Zm-26.58-8.35c1.33.86-.64,5.8-2.71,4.3C113.45,309.36,116.56,305.47,117.91,306.33Z" style="fill:#FF725E"></path><path d="M119.93,307.85c.71-1.38,1.44-2.76,2.23-4.09a24.23,24.23,0,0,1,2.56-3.71c-.22-.27-.43-.55-.66-.82-.09-.11.07-.26.16-.15.26.29.51.6.76.9a.24.24,0,0,1,.11.13c1,1.14,1.86,2.33,2.72,3.53a39.23,39.23,0,0,1,4.5,1.31c1.52.51,3,1,4.51,1.66.15.06.08.32-.08.25-1.46-.65-3-1.28-4.46-1.79s-2.9-.86-4.35-1.27c.47.67.93,1.34,1.38,2a53.33,53.33,0,0,1,8,3.24c2.69,1.28,5.28,2.77,7.86,4.26.14.08,0,.31-.14.22a83.71,83.71,0,0,0-7.82-4c-2.49-1.17-5.07-2.13-7.58-3.24,6.33,9.88,10.12,21.28,15.2,31.83.07.15-.17.28-.23.13-1.55-3.7-3.34-7.31-5-11-1.52-3.27-3-6.56-4.51-9.82-.45-1-.9-1.92-1.37-2.87.28,5.28.17,10.65,1,15.86a.13.13,0,1,1-.26,0c-.36-5.64-1.36-11.19-1.32-16.86,0,0,0-.05,0-.07-1.07-2.16-2.21-4.28-3.45-6.35-2.1,4.93-4.3,9.95-5.28,15.25,0,.16-.3.09-.25-.08,1.42-5.31,2.75-10.63,5.31-15.55A60.71,60.71,0,0,0,125,300.4c-.7,1.31-1.61,2.55-2.41,3.8s-1.55,2.46-2.27,3.72a54.23,54.23,0,0,0-4,8.37c-.05.16-.31.08-.25-.07C117.33,313.41,118.55,310.58,119.93,307.85Z" style="fill:#263238"></path><path d="M70,319.86c4.06-4.07,8.78-9.42,15.06-9.41,6.06,0,10.52,4.89,13.08,9.92,2.68,5.27,3.64,11.23,4.4,17a206.49,206.49,0,0,1,1.6,20.93c.11,3.88.1,7.77,0,11.66a75.77,75.77,0,0,1-.89,11.76c-.11.63-1.12.65-1.15,0-.19-3.28-.06-6.56,0-9.84s0-6.45-.15-9.67c-.24-6.52-.71-13-1.48-19.51-.67-5.65-1.2-11.47-2.89-16.94-1.53-4.93-4.39-10.57-9.39-12.74-6.82-2.95-13.49,2.45-18,7C70.12,320.15,69.92,320,70,319.86Z" style="fill:#263238"></path><path d="M49.31,329h0c0,.84.08,1.66.14,2.46a14.62,14.62,0,0,1,6.66-2.75c5.76-.62,5.39,3.77,1.54,3.95a22.17,22.17,0,0,0-7.91,1.58c.94,7.62,3,13.74,3.35,13.82a111.25,111.25,0,0,0,15.23-1.93c-1.43-3.05-4.69-7.11-3-7.44s3.48,3.29,4.4,7.17a72.75,72.75,0,0,0,11.08-3.05c-2.53-2.2-6.45-4.93-5-6.09s4.6,2.68,6.47,5.47a22.24,22.24,0,0,0,4.79-2.67c-3.42-5-11.75-6-10.66-9.66s8.88,1.4,12.38,8.12c4.1-4.26,5.31-10.29,4.87-15.44-3.57-.42-10.46.34-10-2.23s5.47-2.08,9.55-.58A14.45,14.45,0,0,0,90.87,314c-3.78-4.84-15.28,1.32-15.28,1.32s1.23-11.57-3.16-13.57c-2.53-1.15-7-1.14-11.48,1.5,2.52.21,5.55,1,6.77,2.75,1.56,2.22-.9,3.43-2.46,2.4-1.1-.73-3.17-3-6.88-3.32a23.25,23.25,0,0,0-4.16,4.6c-.42.6-.82,1.23-1.21,1.92a15.76,15.76,0,0,1,13.47.24c5,2.48,2.21,7.66-2.09,5.65s-8.38-4-12.93-2.86a32.36,32.36,0,0,0-2.19,12.9A22.62,22.62,0,0,1,56.66,324c5-1.31,6.46,1.66,1,2.21A21.88,21.88,0,0,0,49.31,329Zm6-8c-.34-1.61,3.17-2.07,3.76-.76C59.6,321.35,55.68,322.61,55.35,321Zm30.1,8.9c.33-.88,2.68.12,2.47,1.21C87.62,332.57,85.13,330.78,85.45,329.9Zm-16.62,5.64c1.72-.69,4.39,3.58,2.52,4.55S67.43,336.1,68.83,335.54Z" style="fill:#FF725E"></path><path d="M53.76,347.15c2.59-4.32,5.14-8.67,7.86-12.91,1.26-2,2.59-3.91,4-5.81-.21,0-.41-.11-.61-.15l-1-.2c-.8-.13-1.6-.25-2.4-.33s-1.51-.12-2.27-.13a11.62,11.62,0,0,0-2.43.13c-.09,0-.11-.13,0-.13.81,0,1.64-.07,2.45-.08s1.57,0,2.35,0,1.47.12,2.2.23c.41.06.81.13,1.21.21a5.77,5.77,0,0,1,.72.16c1.4-1.93,2.86-3.82,4.36-5.66A51.6,51.6,0,0,0,56,318c-.09,0-.05-.14,0-.13a48.06,48.06,0,0,1,14.36,4.36q1.23-1.53,2.49-3c.94-1.13,1.94-2.23,2.78-3.42a.07.07,0,1,1,.11.08,47,47,0,0,0-3.28,4h0a48.35,48.35,0,0,1,5.26,4.22q2.58,2.29,5,4.72c.06.06,0,.16-.09.1-1.61-1.6-3.28-3.13-5-4.59s-3.59-2.78-5.34-4.22l0,0-1.2,1.58-.61.79a.13.13,0,0,1,0,.06c-.68.88-1.35,1.75-2,2.63a21.54,21.54,0,0,1,2,3.61C71,330,71.5,331.25,72,332.52a54.9,54.9,0,0,1,2.15,8.1c0,.08-.11.12-.12,0a47.94,47.94,0,0,0-2.36-7.94c-.5-1.32-1.07-2.61-1.66-3.89s-1.19-2.29-1.69-3.48c-.58.77-1.16,1.55-1.73,2.33l-.48.68s0,.12-.06.12h0c-1.77,2.48-3.46,5-5.11,7.59a2.13,2.13,0,0,1,.23.56c.11.31.2.63.3.94.18.64.33,1.28.45,1.93s.19,1.22.25,1.84a18,18,0,0,0,.16,2.09.07.07,0,1,1-.13,0,6.73,6.73,0,0,0-.14-1.95c-.09-.67-.22-1.33-.37-2s-.3-1.18-.48-1.77c-.09-.29-.18-.58-.28-.87s-.13-.32-.18-.48c-.77,1.21-1.53,2.42-2.28,3.64q-2.23,3.63-4.45,7.26A.11.11,0,0,1,53.76,347.15Z" style="fill:#263238"></path><path d="M93.63,380.35c.07-2.45.46-4.92.72-7.36s.55-4.89.81-7.34c.5-4.72.78-9.54,1.89-14.16a20.7,20.7,0,0,1,5.76-10.6,9.44,9.44,0,0,1,5.65-2.69,9.77,9.77,0,0,1,6,1.85,21,21,0,0,1,5,5.31,53.76,53.76,0,0,1,3.94,6.39c0,.09-.09.14-.14.06a32.62,32.62,0,0,0-8.51-9.54,10,10,0,0,0-5.37-2.23,7.27,7.27,0,0,0-5.2,2.07c-2.86,2.48-4.51,6.14-5.49,9.72a98.09,98.09,0,0,0-2.13,13.09c-.35,2.59-.68,5.18-1,7.78s-.56,5.22-1.1,7.76A.43.43,0,0,1,93.63,380.35Z" style="fill:#263238"></path><path d="M105.68,361.32a13.44,13.44,0,0,0,2.67,2.72c-.41-2.39-.89-6.64.31-8.9,1.88-3.51,4.1-1.76,3,1.3a24.65,24.65,0,0,0-1.8,8.65,37.12,37.12,0,0,0,8.13,3.84,13.58,13.58,0,0,1-.26-4.19c.37-3.75,3.24-3.68,2.5.22a24.14,24.14,0,0,0-.4,4.59,84.07,84.07,0,0,0,12.68,2.86,36.55,36.55,0,0,0,5.25-9.34c-3.05-.77-9.24-.94-9.11-3.13.18-2.93,6.17-.67,9.68,1.46a23.65,23.65,0,0,0,1.06-7.91,39.41,39.41,0,0,0-8.43-1.39c-6.29-.55-6-4.11-1.42-4,3.36.06,7.62,2.12,9.63,3.19-1.31-8.56-7.84-14-13.07-14.25-8.8-.36-5.64,10.59-5.64,10.59s-6-4.19-11.59-4.08S99.67,353,105.68,361.32Zm23.51-15.83c-.2-1.23,3.73-1.53,3.93.05C133.36,347.32,129.39,346.74,129.19,345.49Zm6.32,12.85c-.08-.81,1.61-.95,2,.07C137.76,359.07,135.58,359.13,135.51,358.34Zm-21.13.75c1.32.18,2.08,4.93-.21,4.83C112.43,363.85,113.25,358.93,114.38,359.09Z" style="fill:#FF725E"></path><path d="M116.21,364.35c.22-.59.42-1.19.6-1.79-.17.61-.32,1.22-.44,1.84C116.35,364.52,116.17,364.47,116.21,364.35Z" style="fill:#263238"></path><path d="M118.53,356.73c.42-1.21.88-2.41,1.35-3.61.25-.64.52-1.27.8-1.89a7.57,7.57,0,0,1,.78-1.59,12.49,12.49,0,0,1-.71-1.54,0,0,0,0,1,.08-.05,18.53,18.53,0,0,1,1.71,2.66c.25.42.48.84.72,1.26a12.31,12.31,0,0,1,1.48.23c.53.1,1.05.2,1.58.32l1.57.36c.51.13,1,.3,1.56.38a.08.08,0,1,1,0,.16,9.28,9.28,0,0,0-1.65-.42c-.5-.11-1-.2-1.52-.28s-1-.13-1.54-.18l-1.16-.1c.21.37.43.74.63,1.11l.09.18a4.55,4.55,0,0,1,1.27.15c.45.08.91.16,1.36.26.92.21,1.83.42,2.74.68,1.9.53,3.78,1.14,5.66,1.75.11,0,0,.19-.06.16a53.93,53.93,0,0,0-5.69-1.58c-.9-.2-1.8-.41-2.71-.6l-1.35-.29a7.7,7.7,0,0,1-1.06-.23c1,1.79,1.89,3.61,2.72,5.46,1.83,4,3.36,8.2,4.93,12.34a.09.09,0,0,1-.16.07,113.09,113.09,0,0,0-5.24-12.07l-1.07-2.14-.09.44c-.09.49-.18,1-.26,1.47-.17,1-.33,2-.48,2.95a34.07,34.07,0,0,0-.71,6.11c0,.13-.19.12-.17,0a29.45,29.45,0,0,0,.22-3c.06-1,.14-2.06.26-3.09s.24-2,.4-3c.09-.49.17-1,.26-1.47a2.92,2.92,0,0,1,.28-1.06l-1.55-3.1c-.49-1-1-1.94-1.49-2.9-.21-.4-.44-.81-.67-1.23a10.43,10.43,0,0,1-.58,1.49c-.22.55-.45,1.11-.68,1.66-.5,1.23-1,2.47-1.44,3.71-.67,1.76-1.4,3.56-2,5.4C117.48,360.34,117.93,358.51,118.53,356.73Z" style="fill:#263238"></path><path d="M116.81,362.56c0-.14.09-.28.13-.42C116.9,362.28,116.86,362.42,116.81,362.56Z" style="fill:#263238"></path><polygon points="78.92 375.58 79.54 388.68 81.13 422.45 115.97 422.45 117.56 388.68 118.18 375.58 78.92 375.58" style="fill:#37474f"></polygon><polygon points="78.92 375.58 79.54 388.68 117.56 388.68 118.18 375.58 78.92 375.58" style="fill:#263238"></polygon><rect x="76.44" y="370.28" width="44.21" height="10.59" transform="translate(197.1 751.16) rotate(180)" style="fill:#37474f"></rect><rect x="107.03" y="422.45" width="6.12" height="5.55" style="fill:#37474f"></rect><rect x="107.03" y="422.45" width="6.12" height="2.77" style="fill:#263238"></rect><rect x="83.95" y="422.45" width="6.11" height="5.55" style="fill:#37474f"></rect><rect x="83.95" y="422.45" width="6.11" height="2.77" style="fill:#263238"></rect></g><g id="freepik--speech-bubble--inject-68"><path d="M221.54,177.15a11.72,11.72,0,0,1-2-6.47c0-8.19,9-14.83,20.08-14.83s20.07,6.64,20.07,14.83-9,14.83-20.07,14.83a24.14,24.14,0,0,1-13.85-4.1l-6.92,1.76Z" style="fill:#FF725E"></path><path d="M246.84,170.68a2.08,2.08,0,1,0,2.08-2.08A2.08,2.08,0,0,0,246.84,170.68Z" style="fill:#263238"></path><circle cx="239.61" cy="170.68" r="2.08" style="fill:#263238"></circle><circle cx="230.31" cy="170.68" r="2.08" style="fill:#263238"></circle></g></svg>